<mxfile host="app.diagrams.net" agent="Mozilla/5.0 (Windows NT 10.0; Win64; x64) AppleWebKit/537.36 (KHTML, like Gecko) Chrome/127.0.0.0 Safari/537.36 Edg/127.0.0.0" version="24.7.17">
  <diagram name="Page-1" id="MVvESNJ7YTO-C3XZJYpg">
    <mxGraphModel dx="3357" dy="2553" grid="1" gridSize="10" guides="1" tooltips="1" connect="1" arrows="1" fold="1" page="1" pageScale="1" pageWidth="850" pageHeight="1100" math="0" shadow="0">
      <root>
        <mxCell id="0" />
        <mxCell id="1" parent="0" />
        <mxCell id="HRVeJ_BM7glMgU8fXkzC-1" value="" style="rounded=0;whiteSpace=wrap;html=1;strokeColor=none;fillColor=#e9ecef;" vertex="1" parent="1">
          <mxGeometry x="-130" y="-140" width="1112" height="1290" as="geometry" />
        </mxCell>
        <UserObject label="" id="HRVeJ_BM7glMgU8fXkzC-2">
          <mxCell style="rounded=1;whiteSpace=wrap;html=1;arcSize=1;strokeColor=none;fontFamily=Lato;fontSource=https%3A%2F%2Ffonts.googleapis.com%2Fcss%3Ffamily%3DLato;" vertex="1" parent="1">
            <mxGeometry x="-117.5" y="160" width="767.5" height="250" as="geometry" />
          </mxCell>
        </UserObject>
        <mxCell id="HRVeJ_BM7glMgU8fXkzC-3" value="" style="html=1;shadow=0;dashed=0;fillColor=#181826;strokeColor=none;fontSize=16;fontColor=#181819;align=left;spacing=15;fontFamily=Lato;fontSource=https%3A%2F%2Ffonts.googleapis.com%2Fcss%3Ffamily%3DLato;" vertex="1" parent="1">
          <mxGeometry x="-130" y="-140" width="1110" height="80" as="geometry" />
        </mxCell>
        <mxCell id="HRVeJ_BM7glMgU8fXkzC-4" value="" style="swimlane;shape=mxgraph.bootstrap.anchor;strokeColor=none;fillColor=none;fontColor=#FCFCFC;fontStyle=0;childLayout=stackLayout;horizontal=0;startSize=0;horizontalStack=1;resizeParent=1;resizeParentMax=0;resizeLast=0;collapsible=0;marginBottom=0;whiteSpace=wrap;html=1;resizeWidth=0;fontFamily=Lato;fontSource=https%3A%2F%2Ffonts.googleapis.com%2Fcss%3Ffamily%3DLato;" vertex="1" parent="HRVeJ_BM7glMgU8fXkzC-3">
          <mxGeometry x="772.2127683932797" y="20.25" width="114" height="40" as="geometry" />
        </mxCell>
        <mxCell id="HRVeJ_BM7glMgU8fXkzC-5" value="My Requests" style="text;strokeColor=none;align=center;verticalAlign=middle;spacingLeft=10;spacingRight=10;points=[[0,0.5],[1,0.5]];portConstraint=eastwest;rotatable=0;whiteSpace=wrap;html=1;fillColor=none;fontColor=#ffffff;fontSize=14;fontFamily=Lato;fontSource=https%3A%2F%2Ffonts.googleapis.com%2Fcss%3Ffamily%3DLato;" vertex="1" parent="HRVeJ_BM7glMgU8fXkzC-4">
          <mxGeometry width="114" height="40" as="geometry" />
        </mxCell>
        <mxCell id="HRVeJ_BM7glMgU8fXkzC-9" value="My Tasks" style="text;strokeColor=none;align=center;verticalAlign=middle;spacingLeft=10;spacingRight=10;points=[[0,0.5],[1,0.5]];portConstraint=eastwest;rotatable=0;whiteSpace=wrap;html=1;fillColor=none;fontColor=#ffffff;fontSize=14;fontFamily=Lato;fontSource=https%3A%2F%2Ffonts.googleapis.com%2Fcss%3Ffamily%3DLato;" vertex="1" parent="HRVeJ_BM7glMgU8fXkzC-3">
          <mxGeometry x="662.6111530182841" y="20" width="114.01416765053129" height="40" as="geometry" />
        </mxCell>
        <mxCell id="HRVeJ_BM7glMgU8fXkzC-10" value="My Favorites" style="text;strokeColor=none;align=center;verticalAlign=middle;spacingLeft=10;spacingRight=10;points=[[0,0.5],[1,0.5]];portConstraint=eastwest;rotatable=0;whiteSpace=wrap;html=1;fillColor=none;fontColor=#ffffff;fontSize=14;fontFamily=Lato;fontSource=https%3A%2F%2Ffonts.googleapis.com%2Fcss%3Ffamily%3DLato;" vertex="1" parent="HRVeJ_BM7glMgU8fXkzC-3">
          <mxGeometry x="872.8569579396562" y="20" width="149.39787485242027" height="40" as="geometry" />
        </mxCell>
        <mxCell id="HRVeJ_BM7glMgU8fXkzC-11" value="" style="shape=image;verticalLabelPosition=bottom;labelBackgroundColor=default;verticalAlign=top;aspect=fixed;imageAspect=0;image=data:image/png,iVBORw0KGgoAAAANSUhEUgAAAKkAAAAoCAYAAACFOdpSAAAAAXNSR0IArs4c6QAAAARnQU1BAACxjwv8YQUAAAAJcEhZcwAADsMAAA7DAcdvqGQAAAzPSURBVHhe7ZoJWBblFoBPKsoWmgKCaIaS+wKI4oKCetVS0VwuCKWoFGbo1UQfTbLIyuomFpKCCqgoiluBmqJoYmlquBQqieaaCwJmuKKW3TnfnGGWf+ZnMK7+97nzPs///OfMfP8y35zvfGeZp1xcmv0FBgYWTDV6NzCwWAwjNbB4DCM1sHgMIzWweAwjNbB4DCM1sHgMI5Xg4PA0+Pv7QdOm7nTEwBIwjJQYMKAf5OXthfT0ZNizJwvefXc6nTF40hjFfGLXrs3QosXzpPEEBAyEgoJTpBk8KQxPSqht8W5uriQZPEkMIyWysnaQxFNaegP2788lzeBJUt3evl4Myf/X5OTsAScnR6hb9xk4cuQoREfPhjNnztFZgyeJEZMaWDyVNtJ69epCx45e4OzsDHZ2tiyxOHv2PHtVxHPPPQs+Pl5MPnjwCJw7d4HJSrp27USSyPff/8DenZ0d2W87ONgzXQ1hrBZq319YeBVq1qxJGs+JE9pJk7W1NXh6tgW/bp3h8JGf2NjLl6/QWfM4ODhAu3atoLNvR8jZvYfNhRbK/ypcG85ly5bNWdy8b18uHD/+MzteWWwd7MC2tj2U/HqVjsgxdy+UaP1XJcpxx4+fYOGVFpUy0tGjQ2HcuDFsgpTk5R2HFSvWwMqVa+iIyKhRITBmzMsm2TPe2DVrvoTExBQ6woMXsWHDCtL4i12wYAlMnBgBnTt3pKMAw4aNhN9+u84ycymtWvnC9eu/kyanf/++kJwcTxrAlSuF4O3tb3J8y5btEB4+kTSRHj26csdHQjfOOHGRSsGFunVrNrz//qd0RI6/fzeIiprIFrmUq4XFkLVtB8yYYRp54TxIb2pISDi7BwEBfnSEBxdIZuYWmD3733REG1ePhtDKrz24NnWDeg2c2LF7d8vgYsEFKL5QCAcyv2PHBI4e/R4cHeuRxn3etTlJcq5cKSCJR8+44uISbsF2I00d3YnTK68Ew0cfvatqoEi7dq1hwoTXWEFcyocfzoJPPokxMVAEj2E9Mj09BZo0aUxH1UlLWyIzUAE09G3bviGNB/+HFspziYlLSTKPu3tj+Pzzj7hFtRT69u1lYqAIjnnjjVchdXmiyfmxY19h16k0UKS+ixOEhYVw15ILHTp40lF1Vq9ONjFQpEEDVxg/PpzVeVHWwvMfnSDorTBo092z3ECRWjbW0NSzGXQe1AOCZoaBtb0NnQHIyPiaJJ6hQwNJEkEnpETPuPXrM0nSRpeRurq6wKefziZNm7i4BLhx4yZpAG+/PY3dHCnoNU4W/EIaD3oYnGAt1LYcKUuWLCOJBw3FysqKNJG2bVuDl1c70gDu378PixfLP6vFBx+8DcHBQ0kzT5++PWHL1+ugeTN+Yb700gC2WJXgDnHr1m3SAGrXdoDNm013osqAHTNcTGpMSo4G/5A+pGnj2rQhjIubAk7PujBdaaRqBolOTImecVVmpD4+8tX966+XoHfvQcyd+/m9AO+8Mwd27tzNrfINNAI4j+ENkZGvksbfkKCg0eDp5Qf+AQPYVl1UVEJn+T+P3tgcaODZ23dB7NwvZCWjvXsPmMR1o0eHkCTyhmIhJCQkk2Qe9L69evUgjQcX2vTpMew65syJ5UIOcYv88stNMDAwGApOngIbGxvZPCAzZ87mFksP9tnu3Pzh9UiZNGk8Sepg/IZbe1RUNERETJLNO9K9exd4/fWxpPEMmTKCJP0ER4dBterV4NChHyE3V5xfzCsaNXIjDaBZMw8uxDLd2isat5uLx/Pz5SGCGrqM1M2tAUk8P/54tPzLT58+y3my5fDm5JlMF4iMlG+rsbHx8N13+0jjjXbdugzSeIYPH0ySKZs2ZTEDHxX2OszlvmvMmEhZYJ6UlEoSz8QJ40jiqVOnNrw0ZABpPIsWVexF8XPR0VNJ48HfxYWWmrqayfHxiyE09FUWW6PhR0ZOhZs3b7GxkZxXb9OmFZMRHL90aRpL1JDCq0XseqTMmDGZlcLUwMUxeFAoZ4RvwqpV69m8TJkyExYuTKIRPAMH9iMJwKuvLzzbuilpIvs3fgvZKZsg47PVkLNqG1y7XExneKrXqAEBL/Pfk5Ehj/sDA18kCR1MEEmmmBu3fv1Gksyjy0jPnJbXCwMDX+AmJ51tq8JKKS4RvSLSvr3oFfHGdO3iC1O5pEH6KuOC9QcP/qBRAL6+PiSZgh7DHOhZpNUCJ2dH2fY8LmIMSTxoYFrJlZQmTZ4jiefYsXxusiNIk/Pee5+YJC7NmnuQxLOPmwvlPOBL6U21HnJ5a+Z7zEMrUcblUiNv2bUtSSJJUXEsQcrfmwfnj52Bn3YehJWzFnPJk7xK09bfG5p4PQ8pKSu5e/WAjmIyLHpmtActtMbdu3dP11aP6DLS7dnfwOHDP5HGg6581qxpkJPzNYtXpQlT/fpO4OJSnzQ+poyaOkH1ZWVVg0bxyZeWB9GDMr4MDxfjYeUq1uNFEWWiePLkabh79y5pFdOc2+KkqM2B8JLi4VG5J7FwR5OCpULE1sEenBqJ9wLZu/4buP077+mVZH6+hmX4Up5x4TN7aWzauHEjFlb06dNTdq+xAXLp0mXStMeh0etFl5Ei4WMnsNWOcaEUW1sbFk8WFBxkGSrydx51wyTtUcFtVNhmEUyU8OmmoH8OAUcnsYSC5SW93aQm7nJPevZMxfVgKUpPqhe3BvIQqyKuXfuNJB7BaTg2dGbvUo59q12X/eP+A27bl++KdZz5uUtNTWfvAugZlV5048YtLASRojZOrxdFRDdWAULshHXQQYP7Q79+vU2y7o8/joGjR/NNwgPlVmYOTMpq125BWuVZzHlIqVcaOTII7GztSONJSJDXZc2R/7M8sHevoFSmhIU6NE+4gPD/PU5cnxcTFwS387LbZaSp83uR3ODr1Od3N0xOT578hSVAyLBhg6FataeYLIAGio0OaeKmHCfNafSg20gF0FhxW8UXlnOmT5/Eyh4CwcFDWNaLK1vYcnAVYaLxOIibnyAzUul/QzBLNdfhUXLunNxzYu0vLW0tMz41QkKGybLt3NxD5Ub69NP2bP7UGh7/La6cukQST8PmjcHaztqsodZx5u+bQGmxGLunpa3jYu+3mIy7qJQDBw6WGx/G7kLCqByXnCw2avSge7vHMorScx45kgfz5y8ijcfDg88ipd4Utzz0smq41HfmDD6OtL8PJmK47WsRHy//vxVxhtvele1O7AKphTQxMTNg3rw5rOkhkJeXTxJPdHQUSaZgFUFoG1cVJReLSBJp00P7N2rUtIJ6DRxJ4yktuk6SadwvRbo4lVu+lMps9YguI0WPiZk83hzMREeOHAE9e3ZnsSi2+aRg7QtJWSoPjDFeTUiYB506dgB7ezto3bola5cuT01knrYqDXV+XCJJcjD7z87eRZo+ysrKYMECeXkHwaf3k5PiWfKYkvIF7NuXzdqVCLaPv/pqJXuqCuNfbBkLYElrN5ds9u7tzxYoVkew9LZwYSyrxyYnf6HaUXpU7ty4BcWKvny34b3Aro76sw+DJweXF/EFShXbv5YBbtq0lSQ+P1BDWdPVg67e/dq1y1iGpocRI8LLDTU29kMIDR3OZD3gxWOpCT22tHePaPWBtUhM/AwGc7GzFKwnak1SRb17XETK4N8cWM+MiJjMykWdOnWAzMxVdEYfOA84H8rePTYAtEINrd55+94+EBAq1k0FsE56s6QUbpfe4uLOutA2wFvWKkUu/3IRMuatggf3xPITenssQUrZvHkbvPbav0jjUbMbbAJVJh5FKvSkWBY6f179aSUlMTEflxsogh0RvUmT0D2pKubPl3vT27fvPNIqFsD/hp01PaARCQaK/PDDId3Xhobp7e3P3qsKrIGe2H+MNBHvvr7QoX8X8B3UHXxe7GJioMjedTtlBopgTI8P5khZtszUc6akyB3NhQsXyw0UDR3LjUISZo4KjRS3qmnT3uGy+aEs4McYTQm2KsNGjYdFi0wf1sCKQID/QNbGFLosAvh4GSYhgYEjWPekKsHJ2LNnP2n6YlHs5QsvNbCzhp4sN/cwe/pKCRonLkocoyy4o9G5u7dnMZ2ypllScg127Mhhn0VjVhpAVbBrxVZu2+e/99b1G/BtejYkRM6FFdGLYO2c5ZA8NZ69nzooPvK3e/V25knVUD6Yg61pJVlZO0niSUpaThKwRgrO4Z07d+iINo/00DPW4DBxwHitsLBIV+dGAAv9+Fk0funDFf+L1KpVC2xsuEy57B6bi8pQvXp19tmHDx9yN0p/c+DvUtOmFvOMf3G/q4VVLSt4+Oef8Ocf2mMeJ8aT+QYWj+4SlIHBk8IwUgOLxzBSA4vHMFIDi8cwUgOLxzBSA4vHMFIDi8cwUgMLB+A/MjEb1LDl+CkAAAAASUVORK5CYII=;fontFamily=Lato;fontSource=https%3A%2F%2Ffonts.googleapis.com%2Fcss%3Ffamily%3DLato;" vertex="1" parent="HRVeJ_BM7glMgU8fXkzC-3">
          <mxGeometry x="12.960920897284534" y="18.5" width="180.99775583482946" height="42.84560143626571" as="geometry" />
        </mxCell>
        <mxCell id="HRVeJ_BM7glMgU8fXkzC-12" value="" style="group;fontFamily=Lato;fontSource=https%3A%2F%2Ffonts.googleapis.com%2Fcss%3Ffamily%3DLato;" vertex="1" connectable="0" parent="HRVeJ_BM7glMgU8fXkzC-3">
          <mxGeometry x="1000.394973070018" y="17" width="94.0411131059246" height="41.84" as="geometry" />
        </mxCell>
        <mxCell id="HRVeJ_BM7glMgU8fXkzC-13" value="" style="ellipse;whiteSpace=wrap;html=1;aspect=fixed;fontFamily=Lato;fontSource=https%3A%2F%2Ffonts.googleapis.com%2Fcss%3Ffamily%3DLato;" vertex="1" parent="HRVeJ_BM7glMgU8fXkzC-12">
          <mxGeometry x="22.699579025568056" y="3.2500036297640653" width="32.052457636641364" height="32.052457636641364" as="geometry" />
        </mxCell>
        <mxCell id="HRVeJ_BM7glMgU8fXkzC-14" value="" style="text;strokeColor=none;align=left;verticalAlign=middle;spacingLeft=5;spacingRight=10;points=[[0,0.5],[1,0.5]];portConstraint=eastwest;rotatable=0;whiteSpace=wrap;html=1;fillColor=none;fontColor=#7C7C7D;fontSize=14;fontFamily=Lato;fontSource=https%3A%2F%2Ffonts.googleapis.com%2Fcss%3Ffamily%3DLato;" vertex="1" parent="HRVeJ_BM7glMgU8fXkzC-12">
          <mxGeometry width="94.0411131059246" height="40.000044674019264" as="geometry" />
        </mxCell>
        <mxCell id="HRVeJ_BM7glMgU8fXkzC-15" value="" style="shape=triangle;direction=south;fillColor=#ffffff;strokeColor=none;perimeter=none;fontFamily=Lato;fontSource=https%3A%2F%2Ffonts.googleapis.com%2Fcss%3Ffamily%3DLato;" vertex="1" parent="HRVeJ_BM7glMgU8fXkzC-14">
          <mxGeometry x="1" y="0.5" width="10" height="5" relative="1" as="geometry">
            <mxPoint x="-17" y="-2.5" as="offset" />
          </mxGeometry>
        </mxCell>
        <mxCell id="HRVeJ_BM7glMgU8fXkzC-16" value="" style="editableCssRules=path;shape=image;aspect=fixed;image=data:image/svg+xml,PHN2ZyB4bWxucz0iaHR0cDovL3d3dy53My5vcmcvMjAwMC9zdmciIHZpZXdCb3g9IjAgMCA0NDggNTEyIj48IS0tISBGb250IEF3ZXNvbWUgRnJlZSA2LjEuMSBieSBAZm9udGF3ZXNvbWUgLSBodHRwczovL2ZvbnRhd2Vzb21lLmNvbSBMaWNlbnNlIC0gaHR0cHM6Ly9mb250YXdlc29tZS5jb20vbGljZW5zZS9mcmVlIChJY29uczogQ0MgQlkgNC4wLCBGb250czogU0lMIE9GTCAxLjEsIENvZGU6IE1JVCBMaWNlbnNlKSBDb3B5cmlnaHQgMjAyMiBGb250aWNvbnMsIEluYy4gLS0+PHN0eWxlIHR5cGU9InRleHQvY3NzIj5wYXRoIHsgZmlsbDogcmdiKDU1LCA1NSwgMTI1KTsgfSA8L3N0eWxlPjxwYXRoIGQ9Ik0yMjQgMjU2YzcwLjcgMCAxMjgtNTcuMzEgMTI4LTEyOHMtNTcuMy0xMjgtMTI4LTEyOEMxNTMuMyAwIDk2IDU3LjMxIDk2IDEyOFMxNTMuMyAyNTYgMjI0IDI1NnpNMjc0LjcgMzA0SDE3My4zQzc3LjYxIDMwNCAwIDM4MS42IDAgNDc3LjNjMCAxOS4xNCAxNS41MiAzNC42NyAzNC42NiAzNC42N2gzNzguN0M0MzIuNSA1MTIgNDQ4IDQ5Ni41IDQ0OCA0NzcuM0M0NDggMzgxLjYgMzcwLjQgMzA0IDI3NC43IDMwNHoiLz48L3N2Zz4=;connectable=0;movable=1;verticalLabelPosition=bottom;resizable=1;rotatable=0;cloneable=0;deletable=1;recursiveResize=0;imageBackground=none;verticalAlign=top;fontFamily=Lato;fontSource=https%3A%2F%2Ffonts.googleapis.com%2Fcss%3Ffamily%3DLato;" vertex="1" parent="HRVeJ_BM7glMgU8fXkzC-12">
          <mxGeometry x="30.106336284281557" y="10.69001340220578" width="17.234359913855624" height="17.234359913855624" as="geometry" />
        </mxCell>
        <mxCell id="HRVeJ_BM7glMgU8fXkzC-17" value="" style="html=1;shadow=0;dashed=0;fillColor=#35367b;strokeColor=none;fontSize=16;fontColor=#181819;align=left;spacing=15;fontFamily=Lato;fontSource=https%3A%2F%2Ffonts.googleapis.com%2Fcss%3Ffamily%3DLato;" vertex="1" parent="1">
          <mxGeometry x="-130" y="-60" width="1110" height="60" as="geometry" />
        </mxCell>
        <mxCell id="HRVeJ_BM7glMgU8fXkzC-18" value="" style="swimlane;shape=mxgraph.bootstrap.anchor;strokeColor=none;fillColor=none;fontColor=#FCFCFC;fontStyle=0;childLayout=stackLayout;horizontal=0;startSize=0;horizontalStack=1;resizeParent=1;resizeParentMax=0;resizeLast=0;collapsible=0;marginBottom=0;whiteSpace=wrap;html=1;resizeWidth=0;fontFamily=Lato;fontSource=https%3A%2F%2Ffonts.googleapis.com%2Fcss%3Ffamily%3DLato;" vertex="1" parent="HRVeJ_BM7glMgU8fXkzC-17">
          <mxGeometry x="22.27863046044864" y="7" width="90" height="40" as="geometry" />
        </mxCell>
        <mxCell id="HRVeJ_BM7glMgU8fXkzC-19" value="&lt;font color=&quot;#fcfcfc&quot;&gt;Dropdown&lt;/font&gt;" style="text;strokeColor=none;align=left;verticalAlign=middle;spacingLeft=5;spacingRight=10;points=[[0,0.5],[1,0.5]];portConstraint=eastwest;rotatable=0;whiteSpace=wrap;html=1;fillColor=none;fontColor=#7C7C7D;fontSize=14;fontFamily=Lato;fontSource=https%3A%2F%2Ffonts.googleapis.com%2Fcss%3Ffamily%3DLato;" vertex="1" parent="HRVeJ_BM7glMgU8fXkzC-18">
          <mxGeometry width="90" height="40" as="geometry" />
        </mxCell>
        <mxCell id="HRVeJ_BM7glMgU8fXkzC-20" value="" style="shape=triangle;direction=south;fillColor=#ffffff;strokeColor=none;perimeter=none;fontColor=#ffffff;labelBackgroundColor=default;fontFamily=Lato;fontSource=https%3A%2F%2Ffonts.googleapis.com%2Fcss%3Ffamily%3DLato;" vertex="1" parent="HRVeJ_BM7glMgU8fXkzC-19">
          <mxGeometry x="1" y="0.5" width="10" height="5" relative="1" as="geometry">
            <mxPoint x="-17" y="-2.5" as="offset" />
          </mxGeometry>
        </mxCell>
        <mxCell id="HRVeJ_BM7glMgU8fXkzC-21" value="" style="swimlane;shape=mxgraph.bootstrap.anchor;strokeColor=none;fillColor=none;fontColor=#0085FC;fontStyle=0;childLayout=stackLayout;horizontal=0;startSize=0;horizontalStack=1;resizeParent=1;resizeParentMax=0;resizeLast=0;collapsible=0;marginBottom=0;whiteSpace=wrap;html=1;fontFamily=Lato;fontSource=https%3A%2F%2Ffonts.googleapis.com%2Fcss%3Ffamily%3DLato;" vertex="1" parent="HRVeJ_BM7glMgU8fXkzC-17">
          <mxGeometry x="940.2892561983472" y="7" width="146.77685950413223" height="40" as="geometry" />
        </mxCell>
        <mxCell id="HRVeJ_BM7glMgU8fXkzC-22" value="&lt;font color=&quot;#ffffff&quot;&gt;Get Support&lt;/font&gt;" style="text;strokeColor=inherit;align=center;verticalAlign=middle;spacingLeft=10;spacingRight=10;overflow=hidden;points=[[0,0.5],[1,0.5]];portConstraint=eastwest;rotatable=0;whiteSpace=wrap;html=1;shape=mxgraph.bootstrap.leftButton;rSize=5;fillColor=inherit;fontColor=inherit;fontSize=14;fontFamily=Lato;fontSource=https%3A%2F%2Ffonts.googleapis.com%2Fcss%3Ffamily%3DLato;" vertex="1" parent="HRVeJ_BM7glMgU8fXkzC-21">
          <mxGeometry width="146.77685950413223" height="40" as="geometry" />
        </mxCell>
        <mxCell id="HRVeJ_BM7glMgU8fXkzC-45" value="" style="shape=image;verticalLabelPosition=bottom;labelBackgroundColor=default;verticalAlign=top;aspect=fixed;imageAspect=0;image=data:image/png,iVBORw0KGgoAAAANSUhEUgAABLAAAACVCAYAAABIDwNZAAAAAXNSR0IArs4c6QAAIABJREFUeF7svQecJEd9L/6dtOE23t7t5Ttd0umCchZIAokkBAKDMTYgjNOzjXEAZ+PnZ/9tnk1wBmMDfz/bGBsMBuNnEJKwECigjHI4hbvT5bR3e5vDhPfpnundmpqqrl91V/d0z9Ta4u52Kvx+31/+VXVPZteuGypABUAGjT+y3wuGhvqVaB/nd96PQ5s3hh3Lz2PnsHNDERfJZI8jnkoRdzKO45JOJAC08qKsujp86gjVw8UKNwYN8Xwe61ucbf0EKCaLtWfZbD/PxatJDMzbLXwQyIjCoQnEdFXO+gEOdYqlsdYkyy3qBczHYz8v4GUZ+l7ChALZNdoCAV0/kZoAIrNfVZarip41rRCVAJzCqNIxkn4JEvggISMTWaAhcWEHpQGBACZzxXvfiIt++HrMz8zhns98Dc9/7weoVAjGoY1HNI7Kj2VVbOYp0mbJTkgNAplqA6vZP3xzim9e8Qmpp8Jstc/yECSUqAtT0QjWWHiqmo1q2+4v8n68evBViPe59X5NUhtdocnJ9CtG2eAnUglznqNJMNpt6QjIVC5TO87hP/fCkHX0NYxFliZztLxYgjlaipdgswW6MtiRFgHm7IKaL7C+oCWazdToSbdfE16iVXXTNrBSKlmqUtPNxAAQi0T98Md+CcPbNrhrPvKlb+ORf78D5VK5dprOOy39hMa8lzDAvl2i7RAQNLCIJx2RQOXXSxMcedTdyuIzjkgIbFhU14/FQ5XdJRQCFKGG2sBO9keAGh5FVUawjMEWxm2uk5wCuFpEUQrZdZw2h5PGvszOaS0oE16CRqcd1dYIBPED5kJTAqAPA0D4I6FwXiIB8PmQYBtYyZZPYOooNYToISP9XpKQxK1XnY+LfuQ1mJ2cwUNfvA1Hn92L6gUs2cm9LOGh229zvURgSdmJKUYgs2vXGyr1jw82+xiJf5yHNywR2p7psH82Syoq/MSfyw77eY6a2V5sFqKp21fkyfm+ikqQKjVKHShJJFgkFNbf+Amtnh8r8iTKNxhNkT7VQVEUtn+j8hPBWGyRWZToGP6BIV0vQWu/tYgILBvRIKCrdGxdGg1FEawqOpTmrYd/OoNmXWHcbASMSpe0Daw40U7pXjJl9nnqNpvPoqu3B+VyGXOT09XbV8HOdhWgydpWstis76j8Dqp03WRKNcCSLUGgdgMrSdWyrC3NcyALfuFlTTFJUR+b3qsOT6NdwQcBP4fP9if4XoUtFmNWK4ql8dW8JzQ5qVTx6/YUYwbHbhcFAgSVW/DjolOFKGhK7ZpUSwvvaPkjKpUbV3uJ1IJuCY8LAT+lExWDSUqjA2NEKTz1EqX4vERgpps20TawmgY9fWO/DoootPkFJ/quAUZS2rZmroyb9xIB2LVT2h4B5hHCJEVfnUcJ05aqBseZdxqe9qrSieA7tr19RAcAmwCrVNgKMDo5CFf2SwSCW50VecxiDLhdpDewKDTJGmc6jr6tfYbM0kSgqECVC0yWxLMzgq9OURQ7pu0QiCY0JRBGv9MDM85N1IN0gFCtrvpcB0zbwNJBy471RYDSv2pKcIqncuUvkKhir0k7tprZHAS4d2BRREoZY4oZv0YWv0dU95+i59cWtqb0JYHryHy3LJCIWIheBRMIXBwkUZNkPQFQLu6oVlR9Hgc67bpHbA0sv4zL+gGC+kVTzcfT/iKwZ4e0LwLRhKaE4RlPC4niJXTSMZMg2gaWSTTbYC0dk1F1cIzAFb2jsud5RgTVkosE+BbCuEsrvoklu89pTj6igOeszvYiVI8Qxo2SOe5bYCVZxiITmics2e1aK8wYlIJyfCQTkJw8P5vlcwH91WOAxW5hFgGCc1/oK1EqH+sbavKRxWWRVQV3tATx1b2m1iHOisisCbXNapSET5Q7tARAlOjI2jHN0oJC2qo2bBtYKTWWoDUGzUwCgqIbHUVWpWdpFC/Bs6y3Q0Ao7LS2QCBAAytuXES3sCh3HEzQmSxT8/OZQRyJCYTsGiEQEKkxmxCLTltEn4cgwU5VIaDbApMdkVX3CSNyFaX2czMIxHYDS0Yu3wui+oFYTlzNYBzvKrrRkS/MxdRSaxjR7v5eIl507G4pRUA3NLEBKFUKSD3c8mNKncs3w822WgOrIwdsWp5DIZ/BSydKmJ4T1W8ptbc0kc36BraDpDo7iiSH8Dvc0o3NciFQvYTIDXqrqr1EmpSg9WnVbGBRxEsZExRY0W2soGuZmScyTXZlmema2d2uEgkCsoMMbzNZgRkJMXbRRgT8AmKwLF1H5GzI9XazUmodBIQNLKrK8c6/dWCJgBMKqF72TbM0XTuOMluJADC7ZLMRoKisKE1VFY7N5ou8fxgAvMhJ3swdSMmx9byE3v5Rjm6lBlY2A7zx3AJ+9toCCjngiw+W8KWHZjFfihLBhK5NUVqZn4iluRzUjml4B13dxmMavnZUFQHNBhYPW9zqxlp8LFZOCp48VbTzW6uCTUOAGlziUbGmwZCsjYOUnh4HeoKiBle9VZOFpqWGgIBE5RYaWH4qaZVDE2DRcNkxMWFpYmEryhhoq9tRFgEBApTgkdZuilTglIQpONOU1SO5GJIABW+lBlY+l8EvvroDN56XgxNDH9hbxke/NYuJ2Ta8hUVR6kj1j0KAqoOmR6BuBq+3uh1tEWhEIGQDi12Qb2b5hZygja+4WkNB6ZOpmJn1RA7CrwRQPY1mDSJBCMiE6+WFfMFsRqUSBEBSSeETAVHnQmVpYmFZkSdU5pnqqX9ifnhFYX2CLMxa/8CITxdAWp7hF4+dzWWxuVWL8cTYS7sQ4tdME+ULfkqZaMwokVJlVWqHqOsl+NQsCISt1MBy8LtsUx6/cn0HlnQAf/PdeXznuXmU27B/FUQXjM4JajKym6JGiVNFx2COKijLfl0M42zbBY0iQGhgqR1/PUWi8bpr8Dz6zQ+7tjk82YSV9wPBTNIcbXYlBQKy4wOKUL2lk6OKLS5uv9IwmKVRg59o9RYHu+3Y832EMEhhaP2CTzNJlDHLoqfc0bZNLd921phghttS6XTatrJqWO0QTaRjCdacBdJaqYHlMdVVyCKXASbnymkQQTQ0Us2ETyhVfVjj1EaT0FDZ9zuXV3sJ42DYBVOGAKGBZZqjpKmlih7V56bxaXzRs8qnxU+heZ5bdkXRsZ5Of9YZawUcg3pQWlgsGTShyMSvY9O0nWKAqI22iP1F7rKerEzlojgnSrV8o7M0PxeusuNUQ2qJTwYC/HVQldKlMmCwpaxX1cuSn+AMBk3HVJCLFIVCZSs2sJJhNG1CRaKCUzQ5NCvJoF6CYottojEtxaaggaUjan4sdS51XBKxDsqzWV74zrW3ugpZ1edmqbSrkRGgBqKgmRKZEDtQjgBbSagsSfW5+BsJqXZspRQxAkl5jFCWsVk/EFABoukGRNc+C8imndb6CLSl0gVtQfmrg0k3yze72HYcT4VtYLW+mTadQ/5wTJRkqg7E1Okskc14WlAmvIQxlonI2GH6CAS4gUUVK2WcbAxlrj6zwWfQzl9YP+HM8AIX/3eKcQWn1c4MhICJO+tJU9tAQKRpkrnrz9Qrz6xNUy7NpAlNS2s9AtJHCZ1hnq2LnLvscwsw9+p1XasTZd5yUHVXt+7bKqgWAqyCeROpSic7gdQiICmDqUzz0VPPdkWxV5Rj63mJ6DFkQwS/m21gRY9/U3YIahKqfCISZvwqV78cm0ZM0NVtPKbh286jAjSwRHD53UqiqiF1XFhx6e7jF34oWISjV1Ykq/ycLpfhqLSzSQjwCa8oiWULY7/PSRvaQXQEZBmHrBuhOrKq7mxFTpdA4kbGeQuLmvCK8smWKoZNakHQ6KlXWFPb6CY5s2u1EQJhQpMon0gFdFRHp8egn5sNko6FhdI2sMIi2ObzKQfvOimsMTjjSWjCsG+MVbtQ0xAI0MDSaY2k5YYVLWEVjfI7hLN1RdP0mr6xzikqGwjoO9iR2ghQhcIuLCtWaZvLAqE329oyDcfUjpKonCf3hk4k2520yqEh9nCWRpktuv3sicu6cA1R2aFVBNpe6XQB8KyMtTqaMlEjf1pdLl8R2QYWTS9SN4qiyMHNJCAcunasU+vru8nY2Q+Imp2WXAQUDSy/m1XJZSpJlIn8GF92W0NOksQE12Z48vyEmtbMKmEioJCTzeew+pyzsHLbWTjy3D4c3f0yKmXnm2+o2QNll8YaRjSLb5/RV7Yjk4yA78vcdfJBUSGcZMZjoY0SHb12lMgJe5Fzoc2oRbXMS4RbVYsEO7jdEGhLpQvHtAkvkRQ145/nsA2spEgmZjqoSt20eoKaQ+s+oVSfTxcyFazrrGB1oYLj8xnsn81grpJZyOCbxn7M6mC3C4YAsYGl08hSvS9K9LlepzcYq+ysoPxEldrK+RfVSLxR6yAeHju7QmAE+Jgg8s72EUIyvMOb1+L6X3wnhresw9jRU/ivP/wcTh86Tp4vHyizOpmlqYS2uJMVuQHxxLxELN9IaFrl4g6pMcvEf7voHC01HrP9Sr691taiSZSepJAY/qSEDT0ipaOHpoSBQbE0Nh/XtyoWyvCRnQ4fu5dtYNFxsyMVCERvMhoi8Etoqo7KaV69cbCItw/NoidbwUw5g2+PFfDlkQ7375SvX08Uyxro2KFmENB8hFDVKuEbPDpBRWesGeYXV6HtTelJU/MJ0xzY9QgI+AlQ1BXkE8Jghw0EwuwQdTOpMVRtuGg7Xv9r70Hv8kHMjE3ilo/8H+x/4nnmBpb/zQyKyMN4NCvVFCHgk2+5DSzdwjFFrMdDKl8uss41mKNVp8j1KXBqa/l4BGR3kSFAqZL451Z1TxkTjX4YADzG9HJs0Y68l+Bjc6IhlBBnG1hplJpMmLWeCzW0ieoJmplogha28KFZmq6X2NBZxsc3TGEw5zw1Uf05XcriL49044GJnCaPdng7IhCigUWBS2SNkVgohZgUj1FjxjsPlllK2zHF4LQe6X6RQJQPtqmZ9QwN4LJ3vhard27GyT2HcPff/ydmxidj1AfRfSqqgOrJpAR/mU3HyHDbbhXLLSwKumEcvTqMUChooTGyrmS46Ml6Ba+WkZUANja3kDo1k5W2VDrZLQ2Vo1N9Ln6fDzXaU9XAoSKbmMBCpdqOSzUC7JmuKvioPg8JxKv6S/jwmqmGVf7+eCe+eroTpYoZAmQpk2p11ech2bfTDSCg2cDyS8M8amS3HvyChjqgGOA19UtQLlVaJFMiZlnCKSLfClUq1K7eJegZ6sfEyBnMTk4bEr5fl0DUoKIJzYrckHiatUxc30ooq5RUfkD1ebNwa+q+soydZrN+pEfT/moqWHbzpCPQlodbfE2hcnSqz6tCToKbtTewkm5wKaKPergVPvRpgiKuXC/pLeKP1k2BvWvlvP/q74514lujHSiDZseyzoNqtupzTSbt8CYgEKCBxVKpUgHRpf0mcKm1pZwnv4uYXkBkOeZ/5/xbhZgWqXZweARY3+oIhxWan1CtMMNjT1ohuuvPlMcUZCrhkW7tmSTEdA3yUbmGxwl5BfE7pk8XChFRq2t1ckcrq+UpbtyKKSLxtvqybal08TNtzkskWyFtAyvZ8tGiTldp2UAVaUIZT+Xq11sX1cX9uQp+fc0MLu+Zd7l3xjwzncdfHe3C/tmsFvR2cHsioNnAUpVr/Od+DSzVWs0SSFLp8seD4jvZUkDkO5uFuN3XBwHZMb/sfqvI5NKp0ilQiyBWJ7uhusiuX7kgKrytyONVlcQ89UHNGP26NW3tG6iFOQ+gzPmK9VA0mz8b4dt0bS2WeM25NXcLEpo8pUwNInxhHiQ6qi0tqJuleAnbwIpH2RycM9ksyqXSwoa9OeDc7jKem85idPHXkRNUyAC7llTw3HQGM4uvf4p8X+EGTQ5Ow3ngbUPz2LWkiH2zeXx5pIBDc37RUb9yje4IvDkis7sytdKuXTd4GmFxMYSALHfwlvf73J4MGxJCmGXCCFBVmYShy84ldPpYAbDDKVZXHU89rxKtbu23PZS07iZWEKWxiiJRlCDOV90UpsReXoysiFJX27eHGaaDS12VdrjSr9MSjAUFAI9pf1vWjc1Jd7O2gRWP2vYuG3C/rfrAY8+jOFe98dOVBTZ1VnBgLoOJGBtYfXnguv4i7h3LYaTI6Ls5MwkIKoUA0f1mNjqqG8Iy4ii707xEQPbttFQg4GpgTQ01b2CZ4C+4gpvYPe41ZAHXGmLcktDYTyQ0UbeCrYo0lrdDwyKgSmNF6+snxiqRt1SNEVYkbThfeROL3ldpQ/S8pNfv/Ex2w4IGF9WNJ73IpXFrR8WCAFWpVFVaSykdFZRgDpGyOlPTLLzbKhZ9CLmJbWCFBJA4vbuvB30rhzCy7zBKxRi6VQqlXZIDpkuLfeo6NhLhG8JVrqoM3e/zRLBP1Cs7LDoE3Hf4K340GliyxpNfQ0r2NgoVWc3+XPYoZLPpou3POwCdp81oO9hRsSEgOpbwfify9PZ5sthEQ/+uIr9HqRvJtSKPUYQht1I2sUKu7ztdpiheNafrJ6KkNfFry8ASRU8+r6E3x3VFlnjYLIHJRICiaBQ/4XGXinPnIAmRmjEKlKrHBWW72AZWjObjBGtKVRwjSbFvJTsTkoU5P5MyTnyUlrZILL8LxQ2qvYRxMNpiwYUeFaFZJQKE0MDSK76qmyRd3NHSJzJDBxU2RVa19qKlsC1swwyT1KMEiu81Q5FdRYgARQCqwrPR6nROimSrW1tuUZWtKUfDi935jIh3/iwcVjlqaERnaZR4LBNZi2quZStqBMIoXUv4BNExql8WTKsbWi0dsw2sqA0xBetTCkO2DPfMKFLW/A50RAlNkD5B4zeBUnLolnCPkcouuYsvaEnAhhXPmUYDSxeUYAqtu0s045NvIuyZr87pT/I5i0aiiV+V0n+xhW8TxCg6r+GTbZFVqayy8f6WTLzWZpsgdp0tM4uJmM400li2DmQT12AqR9qy9QbJbJhixzQ0+HTfm6XyAta2afjaUQIEogtNCYbb71qpn9WpLS16L9EIq21gJVjVUkSao0cV9naZXz3R1OAUT+Ua1EukSOSJJtV0o0rGbIAGFqUxxbfXWKVNNO4GiFMHSgOb+C5BDcRR02HXN4yAzIxUKqf63DCZ7bkcJWOQtajkiFmRp0ibomxkqWCQdVB0VK6t/YRf1BRl/CKBiAG08VilvPbzSBGIJjRFSrL+4rJOP91OKXuacLPsPraBRUE9uWMKXR3oGujF5MgZlON4t5YEig0Xb8fEyTM4tf8IHax4TIZOT93XJ5m2tCoZiWNZA51mDa27/Gfo5pQpXmoNLL/MlT9DZNVARkaaMmH20iIFVj3eZLkDf1XSQ1XUHtTbkcKDHUNGIMyddV6ozr+tMMnQBx8Y9E42TTg6q1uRB5diqmYySrHQdKQ6fzaraqezHqWAqQCKHK14cdGKotjL/o7PeGheQsmcHdAuCARROt4PpE7pgjCttjRv1c6ebqzevhHHXtiPmbHJui9trCu4uFd3JC0e2wZWep1ANpfD+gu2YeWOjTi+ez/2Pfx0OGZ0TYZR5rMu3oHxk6N6DSxfaoPGXtWd4/pNdVkWVeupc43htMTY7CqWGWRQWfCfi38xtk2kCykaWCrV8FMn3cZQpHz6LK7isVl06e3L10B8g0xUI7UG53o4JXa03ympKCboxYnEsp1OwvjTofAps2xFNuG2Ik+JtkR5E0vX0VsnzykNxdHKoqe3VCOofuccuiJLiZZbMpuNgGmlS4WvqDLd0d2F5RvXYmT/YcxOznAng+ETJpHNUu1YRy1sA0sHrWSNdRpYGy7ZjjW7tuDI03uw98GnkkWgR43fiStVqSPzDUEIUBNDbb9R7DyZQvVvabgZjCg+pI4Zf4IJjxAG4VitYEFWjX9OsPtQsq4y7088HYufL7ujLwJBBJiWfm3Lip4iNLYdVA8EZTZf1rL2LF+5ZQG3jPkpDd/E4m9UWPQkGRbVEtWA+tX3svxOvaoVnEXAB4G2VDqqzbJWR7c03dU96aShCrENrHR7E+cRwp6hAZw5OoJKubzITFA/QLl5EBlkQSwtWOFDhYfuJSIDpakLu+jWIHa/RJN1bk2lLBmb+zSw0uD+owDRLN+qJqjf53x3OApu7ZoRICDzzrbLEQHY1CWplhjM6iirM7Fo4Vl8KvV2XAoRqKmSNAnzlCaYyqUQENMkh3O0FJtdSBi5dlu7J9amJdk26+kqHQtMapVOl2m+kA6nHeG8RLi9VbNtA0uFUJt+HsRkjEKlS4DIUenV0ro7mvUSdPDYd+W3wy0nOjLxjyS8A0tFlJ6SqlZL1ucy3qg8U8eF51pUA6nuj8VHXXj+2moF0UEIL2DV82RWuBGpjChshrc0K/KIxJWUZU09VkhRFLZRbv0ApwHxASjrTzb1kD0p9hAhHbKbsnyJxTYnvc9S2yPi8aTmC6n2D6yFyRIiVWwWK2JcXsI2sCJ0BBEv3VXI4MJ1eew/VcLhM8ztq4j31V5epsxmTUabrOoEXUel77BUXoK95cQyob9TQAjstMAIMDewgoiLtwBWIQPTlPqJIn/hIcOG06SjlQWQywAlAGVRtpd6SUkYoGQvoipE1VRqVbyaxhfF0vhqXm11QQvPIB60adDZjYMhIMq3eOfuo3Lu9JapkoNBuDjLL7NWgSo6shHToysyVnxhObTzzSFQF3Ldf9T0R3V0H4qE6uLO4xtaP22hdCLgg0ZPObpULyHKsWVi6+nMYOOyHA6PlnB6qnnJrW1gaVlVogZ35DPYuSqPQ6MlnJjwaWD5mYlfYRhLPRFNDs0KKh4vIVeNhRtTkcaJRKlmAzGOn8lmswtxrFyuoMw+8hoh+ZlsFquvuRLj+/Zj8tBRlItFY7sR3oElOy/0aGj1sk3FH4sPLxfVXGNylC7k14sRSdCjuDMLXN1fxsV9ZTw3lcV/n85iOsGHDNEjmcAd/Gq4WIJfAjFJBElBrU5NvEjkqjPm5nshNV9tM6ImQN16WAsfvob0c/SqU1itjVtlMGtlXoXh/CmyJD1HSzkbYVFsR9utayc0r7dAU2bGkCO1aRo16lEmQlMqlNLf0i5aX8A1Wwt4+nAJ39k9V/seLj0JsqNVXkD2uW1gqVXWjogJgUQFJ6KjqjRmxIv5sNpR8bvIYq96pZhkpLFNV3cnli0bxOBgH5YvG8Ty4aXo7e3G7OwcTp0aw/HjIzgzOoFTp85gfHwSTlMrip8lK4ex46dvRt/GDThy1/dx6Hv3YvLwUVRK4RsKXAPLL0Hza9REwXbS1lSpcPPwkaXbIgRVXHhzti2p4MPr5rClq4xTxQz+8EAnHhnXC/BJk2Bq6KH47navchIhTD97oFpaIyOy/oMVeSKEbo6III8VUjOuMM7fHIcJXykaR+t3rpBwQCInbyFFjiZXjpx+rQ1q6qV9e0trk9pgHaULHpqCUBbhHBnTKgYrWN2fw3lr83jpRAl7TpZ8vz2ej/Lq1emXbG0DK0L1sEuLk8sguYFK6QNhLalca7Gh4tx8Za6rBw0Zwb0E3Y4DsR/RpEIhjx07NuPSy3Zi7dqVGB5eiq6uzoZbxKVSCSMjZ3D40HE89fRLePCBJzE9PWucquUXnItz3vdj6Bjod7/oYPzl/djz1W9g9LkXUKl7oZj+1pldu95QoYkpEg3Wp7gpM/R4F6XFDtlsYcq2u5rX+pKDebbbwJrH1q4SRosZ/P7+Tvxgok0aWLK6Ria0xZZ/4yPdTdHXdtnUhKU12ja7qockVSV06oh2kVJL8RlG5UR+wnuisE1cq1wXKNGRBZCPqP5aFnT1ltLdJjDTVg0rHl/+JMJVX6ckq6EiU8omyMncluYtjRp7RTm2LB47TcWOXAbzpUpTX49hG1jmNC+xK4VJKEVhTq8c1YAlTHKjsY1XCzPh3K+ESmJ9rMdtfKP7+pbgTW++FpdcstO9eeX8OI8OdnZ2olAoIJfLuU2j+fl5zMzMwGliOT9O4+rAgaP4ype/jX37DhkjOJvPYcMbX4uNb70RC76uUsHUkaN46tN/j8kjx0PtJXmJO1+pCyOx5Ep9KHpacDLrbXhTFJlmZN7Jt4HGB/p8Brh6oII3LC3i3rE8bjudwXz4G38tKN8mskSJNw55orqviWQneWvnee1cIe+eVpSLJZSKVQev90NNuXmr431FY1eDX5kXryhhj86j6KFiR0sQqAnNWA/LL2GmqpxVGkZYItBUlYUaQL+sym919crNs7S2blgFgT3ILcwg+3hzwoQmkVKGoSW2uTJLo0RPOpFBvES1oWl/LAIJQEDmG2Q1hChdFf6ucWG921R+TXGq1anxDcO+evVoRzjNoaGhfrz/F96Js85a4zatent7MTw8jL6+PrdxdWJ+AifnxtGT78RQvgcd2TxmJqcweuo0RkdHUSwWMTY2gX/70q14+OFnUDLwiF9HXy92/NS7MXT+uQ0ATOw/iIc/8qehHiXkbmCJGiyyKtmLZmEFk+R0jMqbqvCsfq5qxKtyDNaPUCmz42JCgNJMkplXTCTabUQWtvi7rt5unH3Nxdh+3SXo6OnCwcdfwJPf+j5OHzwG1U1XPy/J5v2mvKaVZcoQUDl/JkdzHzlqhbAYiYiCWJr4DJcqEpYNv1I4EnZTsKiLrl5FkgKuIiJR0VwWNjNSr3S6Nssqk+hIRi2btKRj9gaWWpZtMyKMmbBJZiwdUYlTchPlRQIWLVmd0IRhP5iXaA3NcvLFLVs34Gd/9u1YvnwI/f39WLFihdvAYn8my3M4NjuGyfIsTs1PoVSpYFVHHwby3egtFzB28pTbyBoZGcV/fO0O3HvvY6Ff9N6zZhUu/I1fQkd/9TYY//P8P/8bDn333sCCELzEXZSJJDmjVhtGYHSUE9V7i/IVUUIsKq1j8UNKHttwgK7QeIhSn3C2m8wzyGQz2P7qS3Dtz70d3QNVx18ulfDcHQ/hrs/+B2YnppXvyeA9p7Vpc4HOAAAgAElEQVTfdtMjjl8/P0LIuBb0p20VieqICWAKVFG1OlsTeH9vZ422jaqYpC+w97pfpc4fqCyNtV99S6Osrs7UY5ItHyJieUFac3izu4ZAQNbodpaMRZklBDBBoJrv8s4oOuLCeYkQskj41JWrluG9732z+96rtWvXYunSpe7jgqof5x1jJ+YmcHx+HOOlWWzuWoau6QqOHDmC/fsP4x/+4evY/dw+1TK+n6+++gps/8n3SMeM7dmHx//s0yjOzATah2lgeYrH3ybi0zj9AKNHmclrKlEYE0sf/3dZ50J115JHKAq6F9/BxUrUr9ci04jU5U96Cpie0fyRBRvcZJcCRUJND8eRUZrv7MB1H/gR7Hr9lXV7TJwcxb//5l9j9PCJgHuzFqYjFLUP4Mt2ndUDMmOnxY2AiUeMRP0dlXNXq1/cSDRxvzCOVk42vypVJDI7NwmQbVaZRNPwWiZ8gqkkMBV+QmZplITJk52a0SBu1j5CaNg27HJmEFgwmepfKs63/WVq9a4qUNFNhkgr30wLYmk0+xVV9Ga9BJFl4rDOjg68+aZr8brXX4Wzz96KwcHBxXdNEdcoVco4U5zGg2P7sL5rCBvKvdi/fz/27DmAj330HzA1NU1cqXHY+b/8s1h2QePjg97IudEzePJTn8PY3v2B9mDegcXOpxwdB9ov4klqJY2YAMJXbddT4Nfy4nMM1pCi58PuoIWAKEcSJYns77y/a21kB+shIDvKqi8DnQbWa37pR7HjtZfXLT95agxf+Y2/wuihxgYWReR88LMi15NeKkfTVE5+osA7+pqqummbsdMDmfaKHJTfoQ0/Psh8Xsp+liUBx10ieGuHbzP7xV5ZkptKXa0R7fFkHwWMUYqhlc57IbzX0dK1U5ZXVTQT2XmQ+VT75eWgl9uruPFrSXs7O2M2dVWwqrOCh8eymFswEnM6Yh8hNIdl+lby0VKnWSS891Cb4/7BNpVqf3fn1MYITUZlGdUwWv3+P+eOjupHdIzqFz15+xev73e4o4rNxlIkFesJ+HzT5nX45V9+N7Zs2Yh169aFpui7oy9gbecAlk5lcWD/Adx22/fxlS/fHujbAvNdXXjlX34E2UKHlK7i5BR2f/6LOP7w44Fo5xpYrDKK1otKNfSCUyBOI5kkShjY8MeaP9+q8gyZHU8zbhUrMuOXrZ5W9FU4tMTnfp48yEFES4Bingnn5e07X3OZ+whhZ+8SdwPnJe67v/sIvveZr2FmfFKxKe8bVcU0zer4GseK3LzsU7Xiwu0LL2GtaYSb8HoJbaaW/Hq/q3l+1ed1X/NhJhalCtuIiBUVy95WKi8REUmLhYm6QomKBLuuSQQ8N+CuycWiaEKTSeoTuVZvDnjjUBErCxV8dzSHp6ayUg+psmNZtLcNrKhFz3pf1jaE3SHGdpr9eUS48HDUIoHTsGp4kaFKqY2TGH3lync4RPl0s2OzDqzv+4m34IYbrsHGjRvdbxoM+zNZmsNTk4ewpWsYY4dO4IXn9+DTn/oSDhw8pr306qsux/afudl3Xml6Bi9+6as4fM8D2uu71rxr1xskKYzM8APtozmJvaPIB2Ra4ae5YYjhPD087R79vDfwtoyqKejPUnN2DQGznaoWKNtPZUcnzWQSKsvu/h7suP4ybL7qfBS6OnBs98t46tb7cGLvoUAnEFU2ZSFSJRTV540XeKzIE6pYUZLlNrR8vLksYxPRpFa5KDlpg7X5Q6xFwJ3Tbvn1OnklIZ7lPPLRBnBaFtU5wcLXBwmGRheaUiYZQfEOoJABzu0pY0W+gkcmsjhZzEpfQFSF0rmxUv1bvT3X22/1dkvtR+W/a+savHqbMtlYck0hUA0JtcCgig9+py6mCAq0jk7lGjyhEV034ckNvnogxhsmdXQU8Ik//VVs27bVfWm7qWb4wdnTODE/ie2F5Xj80Sfw1a9+G3f8t36D6YIPvR9D5+7wZbY4NY0XvvBlHH3gkUCg+DSwGA8baGlTk6iJnan9dNYR0ebXfFPnG6LZbF8i9qa4DhztPFZ0eFDNZBavAvOC9D73cGu2R2w7+TUKLV8ooGugF9lcFrMTU5ibmqk1r/zOavzfL8eqgUgldEJy24mo1RjW9RNezklUErc0Io5NJ7S6AIq6+o2OVlTCys6DkxSPF+uQ2iMn6RRqe1Ids9IttE2a6h/iYdqEl3CUMp+p/jdTjkZFTRWd0VBnV20aAtTgI0so6/pUqm5VWC5VRQ7fS1AXOvF4ibB8N2/+2nXLsXHzGvzsz/woNm3a1PCNg2Eoc96J9Z3R53HtwFbsf2kv7r77Qdzxnfux+9kD5G8lXLJsCBf/3q+h0Cf+9kGPvvmJSez+h3/FiceeDERywhpYvGKz7Rw+6ooS00AYhJzEOgfRCatqeUqvV7VG/ecy38fWQrIk3PZS9LCOdTQfJ/ieCqWyUseOWFlqnc2isTo+kIvaaCIvaRvdraNZJE64MLLQyFL5BKsoNXj9UuYgjnZRapRiWhabF1ep3aoSkUlSEDuobRHgFdAFIrPwqpy6p4dk6Wgq8gYRo2ajo2kvYRtYbWuVETGuefvWTHCKgBdRLU3Nsekdet3InpSuw/kXbsGOc8/CTW98Pc4++2zStw7qCOn56WOYL5UwNJ7B/Q8+hAcfegJ33PYIisUSaZktOzbggqvOx/y6jZhesQblziWoOO9m4751dfbUaTz2Z3+DqaPHSevygxQNLLoiBNo91CRZsyvUogEny9Vap5HubS4z3YDE2WlhEAhzFFDNE8O8WzgM5W08lyo0FiJ6Izno6m0skNZnPahSRN5Aqn9cJf2CkGXcbPRk20H1HFNmiy7Keq5cvnJ4ZKuvzK3lXM4zgLZZFR7UJKyQZKXzHmeLNNXXBcATGq1rppNj06N8TIqT8X0APCYi7DaJQEDHTDiCKa9b1+Mx/oRGh3228cTGZj0e0zvaa2C97aYbsW3bNuOMzJTnccvI07i+sBF3fu8urQaW05S//JW7cNbGFdUUJpdHsX8pZpetdP8sdXaj3NmFSiaL8ZcP4Ad//BcoF4uBeJA0sCKNZoEITc8kUUUSvEpR5bBWUgnUDIrQZLd6rUATKFC+fG0MmSZETkvXEwqPJcs8ArxS8Rle6B1rxVNqfY4JqwsNIrOAoPUV9dMbJsm3a6UTAcPVXPyPGgaxY7rT0l3duJv10yrbwEqnzTWB6mooYQKKX2zhO7WJTC7pNhwU7uh3CEpZuHleA+udb3+r+whhFD//cvRBvK3/XNz+7TvwwEOPk29gLVnShSuv3onhFYMNZFU6OlHsHcB83yCKfYN48f7H8cLXvxWY/BQ2sILcvIrTekWPFIrkE49pyU6nPFdI8XNxohdYk9thoqigZQVJEaoVZgyaIrMqWSNb9JhDlUwr8hjE1Qpb+F1DYAtc/u91/qD61dmu1sUTnhKKPGu/TFNKcCuq3qLVztXG44SKvJXJCqx03O2gVPkECtOyhEmuDCbcLOsl7COErWx44Xlzb1ZFeQgi6tZSn7pVh7sQAJi2NDEp0XiJEGwTp3oNrHf80E3YsmULcZbesP848Rhe170V377jO1o3sFauWorLrtqBnp4uH0eaRblQwHfveAyTlWnMj85gfmxGj0DxtxA2M0rJLIK1KK+s83iN1Iq0AV2c0EiXJC2u+/4hEadJ5TAEOOmcKjrK8+tVsB0IURGZThRSQLVf8PMTit5NSVEvQCVya8spUJ8gJMajckEoCzynylISiljTluYUBbU1M40Fgn6bOTDEdmI7IECpkvjLe76N5maAFua2ZhgA9Hj1y7FVsVlvJzOjbQPLDI6pXUVgGguPA4oCkcxPRApAPJVrfF4iUrBiWdxrYL3lxjdg+/btxr6BEJUyUK4AuZzLx8jICO66516tBtbWs9fh4svORibr30uanp7DN/7rPixZ3Y/po+Mozeo/RsjdwGpm80pH7kkrA2W3wvxuY5nEWgcP8Vi//opeWa8jRzs2EgSokYAq9EiIbNdFwxx5yTGzIm9XfdLkm6IozpLyS4G1DSXvbjEZ1qis8Um9O6/KQP3htYmjbCqAHvE6sbk6h4VQFXtVn1MhtOPaHAE2F2CVsEF9BXbfDJsPLK4MBnJldGSBE/NZiaOTdQ7op5BkL1F7hFDfSwQGwE5MIAKR37QKw7MoZWVzBP7votAXmYJTi5jgBPDtO9GOonQp+I5qYe08dyO279yAH7rpBmzduhVdXT63ndTLVUeUSig/8RgyXV3I7Njl/mr//v148KEf4L77H8Xd331C+RL3QiGPCy89G5u3rFbu+vxzB/Dkc/uRLWQxd3paOV40gGlgBYlCQUUUdJ7MUgLxHuMkvpEV39Yy3xMfBXanSBCQVTmizcKYWyTEt/qiFKtTCaXxc1mNYUXe6vqkyZ8slOurnObGrTKcXqjqckzxDLpr2vEWATICESngwreekgmJeqCc0Z1LyujPVXD/ePWWQdAfmZfQcrP2HVhB4U/pvNr9KhNnKaYRiMg3BCMzHmL8dlHZcTC+zMwaGOjBipVD+PCHfxYbNmzA0qVLwy08O4vSffeg/NQTyP/YzcgsH0a5XMZTTz2NO++8H7feeg+OHxtFxXmNgs/Pkp4uXHPd+Rgc7PUd56xz57cfxVh5HplcFjPHxgPRX2tgRZewBaKqRSexxuKxKDup4Q+VrYQSqhR8e94hkyJUZ1ySPWRC4Q5OFkUoMqsT7ypakRW/3+fB+bAzE4lAGOfOK431DT4i1rU6OZhBPYK99ZRIC0wHUTpKxyeJKUgC618AH+RQPJwYKemYc/sqhwqmylX64qdykcf2eoRQ1C6QeVPK73nfTpnDJ91B5ujoaDWnVBX+C4rIp6C6CWUkNYUquVFVs7SERsc18naeAteoozSksdlsFn/0kQ9g+/atWL9+PfL5PGlew6DRUZRuvxWlxx9B/vrXIXvda4FsFsePH8fu3S/gi1/8Fu6/7wnS2suHB3Dd6y5GVvH44PjYlPtS+O6tyzD69FHS2qJBmV27bgjRC6ZYi2iM3zzVmqyFB+bbZ6Jq/yB7RrEmhQ76vpSygHVDUUuBwp0dI0GAGgl4r2+7pjGrlK4AaFbHBnfeZqk7xgyE3S4uBII4er/skB5i4uIwxn38LI2vPGSWqCaXarO2sabG0o4gIqCrdILQtHgrq5ktIiK/EQ7zjceCRwg9O25r1xpaHrIkWFbF6NapfgR6TStvr9DMJG+BoKGPhd8IV0ESGi820wjwa9/puknajvRRN77pGrz97a9xb2EtX75cPLFcrv4+w/hh5yZVpYzK3r0ofePrKB0+hPx5FyD33p90h46Pj+PFF1/EwYPH8Od/9nmcOTNBIurc8zdh1/nqb0Xc8+JhPPnsy1iybTlOPXSAtLZoUK2BFdRVBp0XmN6IJobhI8xcMTsUkxQ16vXMMiIo7bK0G1iiZpGsgWQxjQEBmdV5W8tODxutTnVe5XdK3I4nSTEIN5lb6KqcrWw4OVItjZ0my7xpKqIrMtqqdpRFwAeBIEpHO+uIBfbFt2ZRvt3ULzp6sZZ1hOqsl3qeJ1o98nhsHyGMRQfj2cTRywoUT1mZISVo6HN2N1+y1njSdVTs3Rm9JncY9s0IIBmrrFy5DD/3c+/Axk1r3VtYg4ODyNVewO5SODsL7HkJmJ5CxWlklYqoTE2hcuwYKocPojw1hczgUuR2nYfsta9GJZt1m1eHDh3C2Ng4/uUL38Q99zxKZvZ1b7wUQ8v6fceXyxU8fP9zODo7helDZ8hriwaGvIEVam87mXvajAqInqlTV7XjjCEg8q58DeUFEnX+ZYwsu5AuAubSV14lRO0wXers+BZEwJzKtSA4QViK3tJsPA4iFztHG4GW8A1VJtz/XbgR4JcwhWc60emYbWBpm0FSJix+W2CIh5hkzKiU1g+ExAakeAiLZ5dkaKHTrLr6lRfibT/8GvT19WBoaMh9H1Zvby+cRwzdH6dxdWYUlZERVJw/p6aA+XmgswPZ5cPIrF4D9PVjemYGo6OjOHXqFGZmZnD//U/i8//0fzE/T/t2wJ7eLtz4lisX95VANDE+jQe+/wzKmwdw6oH9oYAM0MDSbd/y400eDVGOpHXoNUmbTC469Khka24tUZovQtfcjire7OdGEPA7fhTlhlboRmCnLSITjjNb9EAQzfqsyGnot/0oivqJ1JAFjqaSLQq1H4Aey+EB5N20bMW2FkWLaljT2KL4BjZMhVC+6qOGzSg7RcdKlNirsul6qfl6CZ9HCK2bbZr2+2zs3LCKoGGVRFZFNLHByPncr7+sZyYGEPAsLdrCJsjqIdyjEpeu7k68611vxFVXne82jwqFArq7uzEwMIC+vj50dnZC9q69+fl5TExM4MyZM5icnMTc3Jz78vbDk3P427/8Zxzde1C5vzfg7O3rcPGl25TjDx8awVMvH8LY4VGUZmjNMdmiARpYSvqYASqxhf2cp0W1noj2OJpWOpjJn0Dj8wXPf4i4DoKEHpV2NAkB1qeyqsb/nZowkja1g/QRoAhAJDT/nfzELypM/Wxanyc7I9EImFA56+hrIhYdWcsSWpkdi8EUiUlkp2zvn83tE62DlrhkItCGSld91NB7zJAaHfWq5KTF4/Z6iXsyTc2fqmqsqPasEti4isZMAgoq/oQmUewHRM3EtO7uTnzoV9+LjRvXNDSrHB/jNLWcRpbT4HIaVE7jymtW8fuPIYf7Mr0YQR7Pf/5LOHzXfaSm7fWvuxjDKwd92XGav7ufOYBDS4o4/YNDKE3Ph2I/4gaWrGHEJ5b8uKBZedB5YfY3tWcQOertzbsXb0dVCqD6PAjldo4BBEQCZaso6lGBAVLsEjIEojvlpaQLXtql8rhWfi2MANUPWEcvUQJZ5GSti/+7Wp98b2bUpqtEopcBqGmyI9oIAVlQ0FG6SBTQe2sW5Z1ZFHlRIqUO0+I9g6Rjzs0zzz1TOLFj4kCg9nBgUptWcUCQqOAUT+Uaj5eITniFQh7vuflGXHrpTrdZpfvjNLZOzszj8c6lOJHvdqeXpmfw8jduw8Hv3I3S3Jx0ySVLuvCGN1+Ojg7/b0Kcm53HI4+/hEMHToRuXjnERNTA0r+poAt28PG6EVc1XvV5cEqbNdMvXW8WTXbfgAiIiteAS9lpUSLAp7EqvyL/nGK/wVePEgO7dqwIUJJUliCrND7iiaYMZd23m7DFqiB2M4tAUpTOafTUtD8SI9CxNJUjrNca33hsG1gJMDH2xesJvGWVAISEJERih2GYpWS+Ydavf2JSFY/1vEQ4urzZl1+5A1dceS7WrlmFoaVLpY8O1qV1lQomJ6dw9NhxHBqfwsmNOzC7dHhhyOzpUbzwL1/Bicee8q4iNhB71qZVuOzK7cjlau/dkrDjvP/q+48/j+npWcwco32zoR8yigYW24iSLSMaw/9OdbphRnj1q8jUR6VWVFop2ITnS1Zj8C1Cz5hEF3DCU2FXCIwAfwGHFZRIaPzvnH+rVDYwcXbiIgImLI0mKPbgW2XHVvwtrKNhVE7kJ1oYKjVr8ThakchY2vw+T1y+rwbVjkgCAiaUjhaaksBtjQZ5d33BjoQvgfe3sni8BB1G+wghHSvTI6v3rCqJfDJQi1edhNKvNNfaVDWYammi6EmPlDLXSIFExUEaP7/yFTuwecsadHR0oL+vF8uXLcPgYD+6uroamlnOY4RnxsZw6tRpnB49g6mpaZQKnRjbfhFmlq2sY//M8y/h8b/4W+ktrEsuPwdbzm58fJHH8MCB43jkiT0oTs2hNBvu/VduCrxr1w0aLWdRFBS1TPzGRV2S6URqylh+DGVOENUPsm6QOfW0sYbOSoYvrNnzKbp7CYKDnRMIAb/bFKyJ+hW+4dUpEOmtPckvkPNWpWd1FJHzNs3brhV5a2tfA3fhVK7NwBKxS7E6mR3L4YvOS1iRWQQkCKRc6ark125mkZNSv9KW6hzFeFKK6YZ4bG9g+Zqn0+Az+dL0Csrpb1jF4dCoh2vhTMYAJ1QCqBdTqiSFYT/uWnnx+y8yuOKqHdi0eVUDrk5Dq7dnCTo6O1GcL2JyagozM9O1d7stDi93dGF8+4WYGVqJTLmITHHe/S87P499//YfmBs5iY7OvPtOLedxwY5CHp1dHRha1oeOzoJSng89/hLGB7I49fBBlGbCvf/KUANLRnOaS6O4mlbyZpK9maG0hWQNoGQvMqF6nKTZZJIljQDUyAToLeUflqgBj+8f6oXVAGzZKclFgKI0bMWTXE5ipCyoo/Usjw4o9Qw57oQ1RrDtVnEj0PJKp8Og/oFO9SnD6sOGTnNLpxhlPQTdSxAVxKkyBd9eZ29gifFzcBk6axVW79iII8/sw8jLR6RAO9D2d2UwO19B/ZeaVfVn4X81rmoQpRrdMEpuIDKPpiaUlByavwJGh5C6ejvF4507N2PN2hXu7Srn8b1Nm1ahf2AJHVRmZFUyGSCbrfqqShlzc/M4eeq0+9L3sD/FYgm3fOshzM2YuX3lUqt/A0uUCIZp+MRdtfM3xlivxh7jxE1XWPVonN9OhmwevQhXFOVw7HayHM94VhUhj227NPkoWAuhaFbVIsEOTioC1tEblAwLJl/ShtuGT8DDrWZnWwQICLSF0vEJ02K0XPhb3eOG9bip0jERyjrxuHuwD0PrV+Do7v0ozXGFoL2BJVTiTDaD9Redgw0Xn4ODP9iNfY88J1X2tYNZXLk5h8OjZTz8cglzRad2S1O3imDHUQxJrG+IJ6FJLPtEWTvfKPjxT3wIAwO9xBn6w+bni3j+xZdw5Nhx/cncjMMHR/Dovv2YG5vF3Kmp0Ou52Vl9A8uvaSP6LGjjKq42Md+sYjGj0CDjL8rmlsm15WvJQr5Kyiap09HgTDaLvuGl6OzpxqkDR1GaD//8rM7+iR8rO7Hhm14ik1AJPfHMp4lAUdhUCUVtdd6qotCvWj1N6FlaQyLAK4gsDPqFzpAkpHs61dF6XKpt12uTic6mReJRiSzd+Frqm4ZAkOBBU++mscRuvPgSeI9RNmqqrIpSLyzuxnqJnoFerNq5CS8//Kybt9ZBVmtgpQjG2GTZ2bsEfcODGD9xGrMT05J9KzhvbQ6v2lZwG1i3PDWH6TnbvDIqJFmnR2USqs8DExlNDl3vKxZboNF5iWAAON82uGbtMmzcsho3v+utwRYhziqVSnhxzz4cOHSYOEM+7P57nsHR8THMnZ5GpWzGRjVvYIkaQNRM10SzKzSGhAUooYQyhrAVM0SUFrOJraju8D7X2ymdo9fu2ozX/erNGFw3jEe/+h3c9bmvG302PjQqYQRINaHQRNoF6hHwsypZ6Si2OkpZyxaotmfYprpoTuXaFEBRmhkEVPodCt3VHQrNZwhW3C2HgOjqj+wkQhY8IisS40DbNADiBpJfbIbbQMoI7TUOG7aPEOrqWfXV68z/IJsBtg7nMTJVxshEWXfB5I/nOyjUwjAW3xCm8KFBH52XoO2flFHOI4Jbtq3DtnPWoae3yyXrta++JlLyTDWw5udLuPvp55FZ1o3j39tjjObGBpYRr02pyI1sZAgI3tKT1hqSYRU9hr7Bv4a+yk+GpdK5fXX+m6/Gq3/hHe6zvpOnx/D5n/4IZidlpzKG1KLVlqFcuxOZrkrArYZT0/nxq2Kox+RVJqzImy7MdBAgc/RBLyaEdfrpQE1CJdscUzlP1ef1W1Ab5SIv4a3U1qJJtV41ifgwSqfKJ5rEEm9VCxYr/WZDHUcoZ6rh7ojgBpbqcKv97NdrWnld3EQojSWCR4A/E1KFtkgV2XRCIxY3xTU6MykdEdEOXd2d6O9fgrXrlrs3rpwXp7M/JhpYzqOIzkvZ+WZ6sVjE7OyskRtYhw+dxCNP7cH0yUmjF09C3MASwc1rZKQaasiBUGikjDFEThOWoZ9FN4E4pwjPZLD2vK141c//MHqXD2D3nQ+7N7DKxVJzCEr6rg1ZUtIJbhf6/MrKcBhQGs3sDq3t0cJh2bKzWfVzmPRLOFsWBJOMRRM5o1nVJN92rZZDILrQlGCo/C2t+mltzGKHi8QPOQWz78Cq4VlrUnnVvvvb1mxYLS9UMFsBxosp8fSJ9Q2qhIZkqspBcUspm82gf6AHK1cuxfCqpVg+PIBOyTf8mWhg9fX1Yfny5cjlcnVYTE9PY//+/UYaWE8+uRfHCkWMPHxAibffgMVvXKyOMtzAUtFmomwysYaKTv7zePcUFaNeKGU7uWwNEi+FuviFH58r5DGwajkK3Z04c+QkZsYnwy8a1Qp+zX9WkCKhJjZYRAVWUtbVFZpHd6PlsSt5o6irW/EnRR8iokPXuXs5PJtFtbqzJ0NPtSpzjlYmPtbOvdIr7sSXDJsdmC4E2krpPGYpjpJmaea9RMZ58lBwAqCvVu39CGH73axyHne8fqCEkVIGj45naQqTmoSS4qj4hEaU4Khh0YGE5iXUe8YxYnjlIDZuWo3lw/3o6e12v1nQ78dEA2toaAgrV65s2KZcLuOZZ54J3cCanZnDgw/txvGRMyhOzAWCkW9cLeRb7kvcWR1S3V9t2F6VTas+V/Gjmi+7nKeax+6rGqv6XMVDej+nBn++8FbdHk0vIi1EuUhofK3Hev9gsaaFAIuLleisTrcssCKPS+YJ2scvO6Q6+vYNmQJB6jpaecot8wwyN62dziVIDS0pCUQgutCUMGZpllZ9MXzNvhuaWmonyDawzHmJhEHpkuOVmZVWvVhFBr0zAzhfQVVqtQtmNJOp4sT2qXVKcTLK8TgqE/m0842ba9Yux7nnbcLgkN43CqahgXXyxBkcWJbBS19/AqUpzQZWpvFBAVYFDNzA8ntsUO3AG193SplD1uKWGqjTdZb1JC26CVMJnQNH0eGFPeaPSaDUgOgXnetJpQQ/K/KYxJvEbcKonHX0EokGOSUWL0WNx3UJF/eCdyumJBpegmlqS6UL6gj1j1HDpGN1WlO7Msweq20AACAASURBVLCYnokTtda7gbXYlXH/Vmm1Lk1KfIOOyXgpK3sKEjmbVEfGt3XlhOmwzNs5fRczwDjvsurp6caKVUuxccsqDAz0NLyDirJTvA2sDCoZuK/uKZfK7rusyuUKypWK+62ClUq57t/OZ86YI4dG8OLew5ibmif7A9mNKx4TAw0sP5hlt6MoomnGmPa8b8AaL+vLmiEBu6cBBHhPbmBJu4RpBKKzOtnhlmkO7HopQyA6lUsZEKbIjcbRxp1Mm0LDrtMiCLTNoVj0liZpWy0oitvAcv8/6aDzjSlW122TqkUsX81GotQ0noTGpJdYsqQTwyuXYuWq6n9LeqrfJhj0J/IG1rPP4dlT43hpfAbIZjE/PYtDd30fkyOjKJdKKJXKKNb+dJpaxWLZ/V2pWP3M+RZD51FEah+b2rjy8DL8LYSy80TVOWPYW1wy8bfiBfrm8SRL11XnXCrpBzVeOy8kAiKBinrOIgFboYYE32+631mSKJyqhLa4VxiRR8iwXTpJCPCHo0FUzvoHRqJ+KbAqesoVIzovkSRltLQkCgHTSpcKP8EfCakSIhpTrldouKnFS7vmOxb+yCx8o5k5vahvQFWLTduUModvm6wk8w2eOvHNL1Xoo5kRAdx4EhoV+9lMBpdecQ7WrR9Gh+Sl7ARm6oZE3cB6evfzeBzd2I0u11fNnDyFJz/5WUwcPKxLqu943caVvIEVmCzV7SW/xousgSVak6LVfg2xwAw2fSJvhm78kzySwCKn8hNNZ8wSsChIqlAtZjEhEJ3ViQKeFX9MYk3yNtGpXJK5jpC2aCzNr5ZX2bHJU90IgbNLJw2BMEonUsqk8SekR1Ua+n3uLaiuG6LxEv4AG32EUMbAQrVn+1JJUvdtV1+Ezv4leOHux8x8KVUYM6GfgRqCMNrKVXd1upcIzr7TpLn4sm3Yum1d8EW4mbE0sDJLqg0swGwDS/F+KwpIhh8h9AsSbEefVS9Vk0rVflEHpnogZON5+ijwJXGMX6OQRm/TGuU08uwoHQRMn5jq7G3HKhCgZBzOEqLsQr60FblVPBICFPUzHX5JhKVlkG7hHCw2+zW7VHdB0oKkpTNhCFB8g35oShiTPDkiS1NV9ur6w9dLZKoPD1o3m3DVME1eBrjy5huRzWXx9G334cyREdM7RLMeayLODrrBKRqqaqv6WZLKjumEhfESm7euwWVXbqdvJhjp3JCcm53D5OQM3vnDbwq1ljO5v78fw8PDyGbrv/FwdnYWe/YfwOOGG1hBb1uJGDXcwKJgqXb4jS92p6wbZozq9liYteOdywfLeHdv3m5dWeCsrgqmy8D+Gb4F1zy6hDuLbliwAykZTcJYam9yorE6e0ujvbXKl/toVK4pgDu3EPqWL0XfqqU4tf8Yps9MhKZjIQK4OHlHfbLHYjhLkwzji0wKkS0kJgq7dkwSEGg7pZNV1WaFEUk8rjWwzFJqV0sDAiu2rkeuI4+Tew+77xaK/CceMwnIRvROKwnsD68YxDXXXYBCIUfCqbOjA93dXSjk826Te2pyGi++eBD79h7BsaOn8Td/82HSOn6DnMZVV1eXsIE1PV801sAy2bjy+Im4gUVpVuni73dWoTrHYPeKgjZdXsyOZ/se/COEfH/E+XerIJDLAG9ZVsI7lhVRrAAfP9yBpycS3sTiRS86pnPGqITKstkqAjVrFhGsRhEKe+LjCbKeFCvyCETTqkuGUbmE+4WhdSvxip+8CcOb1+LwM3tx92e/hilFE8u9t5CRNaT8lEBmdQspEfOcDX/SwMWU2vZ+bTH+M9HukRTGrWoHlq9GBIKodGqVTnT6J7MqPgumM60bmwPn0ylsYGVzOazYug4TJ0cxMXIm0Ra5dN1KZLMZjOw/mmg6jRNHNQm+MNQpoWMhOljlGo+X0AdgYLAHV129CwODvb6Tu7u6sH7dagwODKCQL7g39ZyCfW5+HkePnMR99z2Be+5+FJ/93P/SJ4KbUSwWcfe992H0zBhyuWpjzfldLpfFm978puANLAOPCKqYqzawIrmAxC8aJIv2KwJ1iTZ3hVAFavyfm/U6lCRblhp4vAeRdlDcurPARzbO4/LeorvEV0514K8P0jrcQfdMzTw/T87nc8HzvdTAkVxCTVidvLZh+x9ssm1FnlyNiJwyqsqJ6j6D4XTbqy7Gdb/wI+jq78H48dO47ROfx6GnXqpjf6F1lNRzCeeWF5xUigqqw57MKuslTymmZTYduQ7ZDVofgTAq3YyEMLBEorc0/hzCuX2qG5sDs2do4voLt2HT5efi9MFjeO7Oh+O5PRSQ9tU7NyOXz+HgEy8EXMFO80VAt4bQLdu14I/fUemy393diUuuOAdr1y2XcjY0OIAd27eht6cHy5Ytcx/x6+jocMdPTU3h9OnTGBsbw1NPvYhdu7ZoISQbXJF8TWApk9VvYMXQuPL4iOEGFguZKPuktjpE42TWoFpTfTvCiFYYWESnkd4QHA3sn4Yl8hng3StKeNuyeRQrGfzF4Q58/0xCKp2kHgWkQbBNo5G3JLbY5AtP/eaxzupsYdo0OOzG0SAQxrnzahgNhbGs6pzmX/s/3oZlG9fg6O6X8Z2/+hLGR85g4fu2At20Utms3+dytmUl7kJC5d3fYm5n8QVqLKDaTVoHAUpdxnLrPjJbf/dPlg1VRy2WYaJ0pTlAUppJ/PELy4uY6sSlYwm/geUcA984VMLz01nsnq7qyfLNa7Hp8l04ffA49j34NIpz881REbtrFQGdhNLEvRIS7lRLYxejHeiIZgSJ9t46qm4BiV3iIOcm1QUXbsG2HeuFM4YGB3Herh0466wNWLnSuT1Y/14qb5LTyDp8+DDGx8dRLpeJu+sPKyJDa2DF2LSqk797AyuWn7CtV1kDK2yjIk71jQXoWDYJi7ppIgfzwI4lZUyXM3h6MoP5mLTaNB9NW4/PF5tGiN24HgH+jIcadtV+zYrc6poSAVb9vCxRNkmtcsKZziMpyzeuxtL1K3H8hQMYPXR8saZWEpjkAZmFb6OP6Jr7AvNJi8dJlkoqaasJOAlybkitAtp9KuWw0OwzQ733LYQ6btbMzrRVHLqcd8ueLgJniova17t8EHOT05iL491NNFLtqCQhkNjkUpZPmwXP79Dq7O3rcMGFW5HL1zen8vk8rrjkIuzcuQNLly6F6BtK54tFzM/PY0l3N0qlEg4dOoSRkZHImliiBtZTn/wsxg8edgGL4r1WOpKI+AYWS4rOTQXVA2qydXnW2yqyRvJWK0pPXEeyOsppxxpGgD8UEflyg48GGaa+xZejHLOrLK3R35kQebt50RZXNDF7MvWTqZwBP7FQDiWhKg8tdFnGzgFYqd4rW/xR2XQ9YTxUqtnWdkMLNp4FEtSgamCYGprciob70lzmkdp0nSnyyZGOI5SrTIOXCPAthNam4zFJuwsBAb9GlSo4EZYPPkRWuZqxY4+uIF5i7dpluPTK7XAeJ2R/Nq5fh6tfeRVWr16NyckpzM7PYfnQUN2Y3S++iAOHj+C1117j/n5ubg4vv/yy+0hhFD/CBtanPouJWgMrij111oyxgeWRRXW/IkUT3eJSrSfKtHUgau5Yv7qCzxecfxuoK5rLcDvsHlSorIDbAaem8RhUQLSI7Rda/Wy6aXDYjaNHIKhS0FQuevqJO1QTvqAvYCdu0jBMlGaqLE2cVwSt5VmS3CwmXdV8UODtPAkCWifXppQuSY3i2jvjqqbAH7Owtin7u59N69UaQV2vCeUW3bIwsa5do00QEPkGVWHofR4pRNHm0B7piWXfB9v+/h688lXnon+gp27UKy6/FFdccbn7vqvnXnwRv/fRT+Daq67E3Pwc5ufm3Re4P/ncc7j68svxSz/9U+6XEzg/J06cwEsvVd8ZWigUjEo1fQ0sVUKs+lwbPp0GE9vAEv1dptbaRLXJBFXzT54IsOkD6w9FKxpXmTaRTtPYlGV0XuHl97le7tg0FtO7sejIS9W2Vtu5CZGnF1NLORmBAEeOC8V6kgpoMsOmB3L2W/Fe/M46V3ZPVUStjuVbALyYKK5b7SVMY9FG69UE0tImYCI01dJ6cVMrCfriV5jrW52sgRXAzRp+uDEJWFsaVAg4X063eiAH52m0A6fLKJUTeDIi8gt8uFOFOaPByYSj8peMn5fI57J41fUXYnjlYN0i11x1BV7xiqvc393zwIP4+d/4bRQ6OtBRKGBichLLh5a63xT4pte9Br/zy7+Ivt7qNxk6t6++dfu3sWp4GL299U0xlf6oPk9fA0vFUWSfUxtZMk1m57MpXUunDEakIfMvRha3i+gjIDqQZFfx+1yUQ+lTYGdEjkC9X7Iijxzw9ttA1NUQXWKOCBn3+7UCv4A9IqKMLWs4r+DqjhjFZAwRuxCDQJNeahtIBrLTyECLRTBpoanFr62Kmt540Ti6/VJ3Ee2m3CXhL3GPQJp2SYMIDPdm8dqdBQz1ZPHlh+dwYrxkcPW673dI4Hspo69coyqnLr38HGzZtrZOVq951TW49NJL3N99/Vu34nf/5OO47MILsPmss/Bf3/42fv/XPojPfP4LWLF8Of7ot34Ta1atdMdOTk7ilttux4ply2wDy6z2U1fju8Yyt++X1vGfRZECGm0DU8FZGOeZq6i7K+tvsHO0N7QTokegJqCNy/JY1pvBi8dLODNTXnzEhBdgc1UwejwSsYMs4aXc+qSHPJkdy+zcgcaKPxEKYp4IqspRlMY8dYoVnVZVzTaUFVvsxHEb6kZPOb1UkYlis2+Gk8BD9GZLLcn7OzcMI/XLuiorSqcjJTBq6YgA4OKsy7N3m5F6GN5ItyrHNp6O2QZW1MrT0uv3dmZw5eYC+rqyuP2ZWUzOMnFY5gccRESHW7EmmNToGT6f9hTAz43GnbZs3roGl125vU43X331K9xHCJ2fv//XL+LP/+5zbrOqt6cHBw4fxiXnn4dnn38BSwcH8ed/+L9wzpYt7tiJiQm3gbXSGdt2N7B2Mt9C6Eq4svhqedWlptBBUZSpqUKISB0pPipuFaXQFOcYVlh+AV70mWhuPe28m+FLfb/P40QhiXutGczhcz/ei74u4JYn5/Gxb0019xUpsnyRIlR6vEmiKFJGk8iqRAJQO2or8pSJvlnk1tSrIZr6hW0/NW0WH03bl1CMe+2QSrUkbzz6VtszW6PoxuamQZOyjbXeY5Uy3kKTq6t0ps+ba+/YiudRRFlbS5UwOaWWuC6hegmRnXuyo3mJ0JK2CzQZAUeFHH1J4tODLjR+vSpdP2G8yaZLgL6jEqVGS4d68YYbq80q7+eKSy/Ctddcg2w2i4998m/w+a98VahZ3V1d+LtPfBSXXnC++/mpU6dw7/fvQ39fXxs2sHYxDSylIZp2iaIOGe9+/ZpcKutgGYqjgRX85EcJvcYAWadZVmMY9wkatNqhwKu2deKP397lQrF/pIx3//04KuUaMqp+Lv+5bSDFqFK6liYKfo0+1S/e8wmrOkWOEQ67VfQIRKNyBLrTdMuKwE5DZh2Po5WJz6NYmE7bG1lUgUY7Lk2PBfKpryhQ8OHIdHofrTQkq0vs2DmYr70w3rktWm1s0TJf6uGOKDardrEvcW+KkrTXpmESSl6pI0VO19I8YvQdl060p3kJDWAyQC6bwQ+941rkC7mFiRecuxMXX3QhhoeH8Zt/9BHc8t93up/lezrRPdyP8X0nFsZ+9Hd/Gze94fUoFos4cOCA28T6v9/+b4xPTuLdb32LtDGuQaU7NAXvwHoDc+dQlz1T40WRVJTSyfZjwwQ/Jo7GlSkckr2ORTIa+azsz+F339SN4b4Mvv1MEf9w77R7ETLSHyvMSOENtzgfyEWrqYK2uDHmBWMvL5HRqVo9HH9tNptia7KLNs2AqkZvHdlsxmeVRiEVVdkaUKjujazFH4paBdzJTmMRSGvjKgopUkKTat9EBJfac591jx2q6gvvczMMuPZbu4FlbVmlNPbzxCNgwjdEwmRQ65Lbue+KtXih8hLXXnchVq0ZWuDYeSn7K664FOvXr8dv/NEf44EfPCpF42fe8y784k/9BI4fP+7+Vy6X8fATT+Ibd9yJ3/nAz6Ozo8MIkslvYDmPELLSYFFnHycU+W6VhMgQ8jexyBMlAynZdtg9qFm8/pXDqCiTr6sSZJ1SCB5pqL8lyhu3enb8HCdtx9UDWTjPsx8dK2N8JuruFaH+kl3tofoBK/QYVEx0X0NUPOvdDOW9p2i2SLwqLxIDIPFvIWr2xExF1VRFx6yNhFRHLf5vKFJliuIsqlIas7VgKDaaN1l24sxSJLC0mm/27pTwjxjyx3l+7TTrpgXStw2r8Cbhp9ppCR7MY4jVW1v8D+9zqbF3EYBq/8q/wPZzs9R0LLxA7QoWAQMIJC44NToq98tn2B/3n3o5ND9ddPB0zs71uOCis+u22nTWBqxbtwa33Pld9HR3SwF3vnHwFZdegqmpKbd55fz8+y3fwt79B/Gh//FTyOcWb3aFkVryG1jSRwjjbryoina/BF0WSMKITmcuX7rxyi7DMrhR+FFHyR1U/Qkd7u1YwwjIBCgTGt//bWb/1jAU6VlO1+rknOmIX6US6cEvRZQ2s8AVKYdXA8kKQ9HnosonRSIwTyrrNFVWpRc9w4hMxmfkN3TNA5zsFZtp01EgIzrboPqJKOiJbU0/O+YBoNU4ddUFU6ZQvIRf89ilxr5ILTbNsBsxCMi6oiqldpaI7KRSN4cWEaJHXEPruPYLytlcWH0aHOrD6994Wd0yTuNpxYrl2HjWBuSzOWSzGeSYZpTTrCqVyyjk8wu+Y2x8HN+683u449778Nsf+Dls3rAhLGkL81PQwHIeIWTEqLp1ZQwa0UKyJpZf84oNSuya/qca5tjQMxhz+5pcicYD715ENZDKpdB2MsmbXUuKgEigop5qWk5MW1LUfEIuSolVQhMDI6pxqKu3JNR+TDFiiCuyNA1j2XmQyg+IPm8aE0naWBY5+WpA70DLW9VN2QiX3oJ5iSThGAEtrda4igCiuiX9TleowSN1fsKnsHY7yQvfwVqDSpUFLyLKNrBaFr6oddKunzwE/DpAfoVjJL6hPqGpu2G1kMypoqO6cqW237wtnd71W99xLTo68nXy6yjksXP7OXhu9wvo7+vFeefuXGhWPfrYkygUCjhn2xb8wZ9+CmedtRpHjp/A8NAQ3n7D67FqxbBRXUhBA0vnJe5GsZEsJmtiUfduZnmhVnIqF9RxqtaeaJ1mIkTlqxXHdXR3Ys25W7DsrFWYmZjGkWf24PTBE6jUroAu8KwSKpvpOJOsQBOgLiKhiVJSeTPJz/OJegq08+MEQJN2EpJa5IZTubRLJSb6/ZpPZkgI675dPxA2bTLDSjpWSao9x4leWKWLk1blXpSEKXhuTll9wQR17dDVxZYShlJazRrQmQX6chWMFzOY1ZVTs4huxr70tDVm6vTsRDjaZwm+5xY5c5kMrnnXjRhYv7rqAZxmeKWCbAZYNTiAM08/jq7+Aay+4GL3FpYz5sV778Jgbw92bD8bv/o7H8WPvOP12Lh+PdavXoV8vr4RZoL+lDSwklYK6ZRynpj0lNuEcBvXkAVJvZPVsLSJOsHsmn6fJ9Z3hQWlyfPzHQWcd+MrcdHbr0PfiqUozszhyLN7cddnvoaT+47IqZMVqazJsurlNbQiOcloMoiJ3j6I1fEhU55ky053eDUQiT/RsCWZuKQXukGVwvoGotbpOF+vhPXPQ3S9BNubomQ4tpklEG3S7ZiojYGHRa10gQmLcqKMaTbm8nWPusklm01Jx4RNZtvAilIJFtYuZID3rZjHRUvm8fBkHv90ogNl28Sqxz6InzAqPV0CWAFWo+NCjKQES452SjpFi/JEUDIZ7HzvO7HimquQYQN3pYJcpYK+5x9HaUkvZs/a5n7Zg0Nfx57nsCZbxDmrhvGbH/o4/ubTv0vcLNiwdDSwatdgXRSdFxfyXQzXr9ecu+gRQyE2fDBQB4f6ZXS9SwCNDSZTn1kqHlWfUwkytY63n2i9xirHL50XqYztpSzKc9lZq3Hjh38CyzauWfxlpYL7/umbeOCLt1EFH904mfdmPbYoS2MpMq2W0XGbopV5qxO1mEUNcnWXwopcogbtXvDysPCKwvsEP5VMkaVFRyqlmJY5WhpVDYV1zVeLvIDKjdN2TP4o+3qhiGXUNgkhpbSVWZrIOS7KxSlL/Q6h/HJovv0WsbRTvfz6zgr+ccsEsgCcV16/58VeHJ1LQs2YaljlxEdnMg17LrSuql0g4g8bMSlFjl5x47c66xE2Xn8NNr37R8Q0ey+6ZANZpYKB44dx8vY78P27HsFnPvu/iPwGGzY7N49v3HY/7r7/SXcB52mhubExlObmgy1oeFZml/Ql7rKd9AQZjl5eIUUR09vBOiOd0yHWZMPJyM6mILB6+0a85Q9/Dt0DvXXDn/vOw7j1Y//U+DWOpCM97vHBOE2TwnTLj6EUprQ0kxrv+YTWity8kiWy8NVx7rzKWSVhlETXZkX2SwPUr773K0xNabRLuU5Ob2rjZq7Tjs3noMEjlUmgjlXJWrVq+zXhJUhmULtZsWCq7WavJJDCDxrKA5/cNInhfAXHi1m8f+8SjBfDr5vYFYL6BPW5p2GWdS2taini91gtkhaPlwgPxeD2s3HBB9+PDPXxv0oZZ+65B899+b8wPT2Lz37u98MT4bPC7OwcvvbVO3DnnQ9Guk/QxTO7dt5Q/VbtxAYzikePu3mlDoCLAtEZG1SMyZonOrBPFoXxUzO0fiVu+K33YcXZ6xc2d75R4v7PfxMPfvH2+Ami7miFSUWqyeN4H6jyO6rPq+zIPKtqturzJoMl374dC2ATwuCPHEVrqpRC9bkJOhO7RsRJmHO5XmDPLQO5tdvEanZDEFEpnerzRHLK2q9f5KwvtKqHJZIoWyt92Aoo7konkVAHIMrB7ZLeMnZ0l/D0VA4/mHTuYtmfpiKgYzI1QquNq/rvnTPHg6zrJ9tB31HxLPetW4Nz3//T6FpJe/l6cWwMe7/47zjyyOMolytt2cBiv4G5dgOLEYSqA6uUmXIApw1BxntLqNy5bG3dPU2ZSLP2NUX/4joy36NKklsHAT1M850FnPuGq3Dle29EV3+PexXzwOMv4Ht/++8Yefmo3mJRjPbz3SqhRkGPXVOCgKjQ9QQkc95iq6OKXLR6q4onkbevmg22qIlNVbl2dfhSmfk1moM7Wtk5A+8R+BtZqnSv2arnB6Mq+0ss7a1CGFXpdFU+0fj4XW3xa0KLLY39FkKWbRFk7udsNyvROCWTONHNnGRSmnKqKL0gZfCpPWBLORwjwxVP5Ur1Et1LB3HO+96FpefuIHFw6qln8Mxn/hHF6Rl3fDvdwGIbVwsdoPpHCE1mmybXEnlum76IAh5bVzif87Yv+pxkOXZQaAQy2SyWn7Uaa87djImRMRx++iVMj01Wv31C5PF4AXrJCyVxDE2tXUCNAJ+w8gLyazbVr+4X8Fg1EKmEX9qs5sGOWEAgDbc4zKlcmwqe0raV2bEHGS23ocReZQ4fgZRc7tJYCKfBPiOQl3RJUTWeVKWLFJeg0VNOVFxeQtbAosIlKuqoc+24FkaAahLUfCIyqBoJcG9Zub8WRUc2NtOIYl2iKkNXRX7ajvRRua5ObH3nD2H1ta8kTXrsY3+J0Rf2LIz95Kd+B52dHaS5QQY5jyl+5cu34557fhBkupE5fvlK9RFC/ofivVn9EuZztCRPj0OWVEoDyxQNptbR43ZxtKn9Ta1D58Mvn/Ir7+OnlM5T247kE2aqAJtRpbWdkChOWyWIRqtrK5HbAjm41VCPHEUJs+3AMkdNngiica51yTyX+bGHW4kSibXL4HaZhJlhQpNIKZPAk5IGmqPzfYRQsIeqL+HU/LKyP1E2rcTPDmgLBBiFrjZzmccDm6rI8VSuzi4bbnwdNr31RmRyOanI58bGsfc//guH776/7oHjm256FV772ivRvaTLuLo4zav7738ct992H0ZGRo2vr1qQ0pwP8BJ35bat/KYFFfOJ+1x0SEcl0gY8KlIJGycSuhVmk4WkskRZwKSRTVmdtlIbj2q1QpmiFKqeZhurQzDWWUfrrEA5aKPtxBevtFn+oxJ9G6vV7NGEwOJeoyXyBqojZJvH9JseuqvXeQXmJe4mRUsp/kzuZ9dqQwQMBKSF6GgkTEafQ/NXaOheQq4fKy6/BGe/+x0o9PY0DCrPzePMiy/h8PfuxYlHHm/4fPXqYfzCB34UK1cuM66AxWIRv/D+/218Xb8Fdf1WBA2sWPnlrhma2jvM/Z8wc83QLzqlYVcW+R0ThmiG+jZdRSa0uiPzGjZ+x3AtkXCmUQeCWJ2YT12Rewlx8z1PGuXG0Jy2gjmoyllFEThSWfHKX1A3lyQn8ZyhmQ0t+/45A/5TplT8szF8Quj8uyX8gk70pDHtl26xsVcmPd/aPKIGlogW3eLQgDbaJZKKANVPGK4n/BtWQRKaYJVrk9gXakP/pg04++YfRc/qla4Pnp+YxMzJEUwdPYrTzz6Psb37MXt61H1vMv+zfv0q/MoH34P+/vpvtzeldr/8S3+CmZk5U8vVrWPCHwkeIXSu8GUW35GwIGnv994Vv9oYmXf3jYbUSKkap/o8KO5+66r2VH1OoUl3Ddl43XVktAVfhxr8eT9pLwZQ9KTJY0RCE3VT2McAvM+bTHprby8rsmVWRX9Oo6VFnrYGVpKUWKepzhfToiQ5eMhJEiqGaNG1Ovm20nSN6V+wTSyRGIyJpkaMbVwZUpM0LOMXmlS5g+FiOlq4aJZWfWyKB8WjjGZpQSBN5TvwohWYXT1CBEg+nmYyVSrDmQyB03gqV9elZTLIFgrIZDPu65Dd5ku54jas3KZVpbLQTeE9wqZNa/Frv/4+dHQUCDzpD/mf//NTOH5sRH8iNyOqg7EAN7D8WgvUbqjKiKWj8QAAIABJREFUMas+D42n5gI8z3FX4Wbw0DmbktUYmsDZ4VEjEFSoUdPV1uvrnO9QqnkxmLLzKplK1EKjwYeaWk/IpEQriWyHUTm/hDCJvDaFJh1HS7M0nRWbGY+NJp+1JoTXi2iKKNttU2otxvuB4KEpYQiHASCYporccbVWzWDl2etx5ugIZpwv8InxBpZIKEZtO2FSt+RoIqCbUIrKfa5UrTZoNOmQDg9qx7T9g65upjqn0ciP2rbtLPz6b/xEsMmEWZ/4+D/ihRdeJoysHxKXX6newNJSMF1xUccHvXNDXV9bBi00IVqM2IMxo/6qhSSQKlb8TkJkWZCWD0kVGgkm1g90PZu3Iq+KObUNrLi0lFcUdl+Vyqk+j4uHxOxDcZr6oOnEY93VA137tzcbE6NxkRESpdJFRnTYhVmmWVuWW1U2l8W2V12CY8+/jNMHj7sNLdFPGDcblKu4is6g9IWd17GkE+ViGcW5+bBL2fl+CPD+XmYmiUAxekvT9xJVYCix+eKLd+Dn3/9OMpITE1Po7V1CHv+Zz3wFjzz8jHK8kxe4D+55TU3lDDMDxN9CyK6dcb7Wgjk28yh1Ea5RzUK9gLrfbSyKaMwwqL8K9RaZaOWo+FKtq/pcH4UoZrAnzrK6R8RJOriLArGEr0n1/VaAMQvS7yxJFE49AakPEdpB5LaJFVJd+esH4VQuJDFpnC7rBqiio56j5eOx2dXTiLulOXIEKCclojCkDk2Rk663gZzRQncHSrNFlMvl2oGJLDP23zFqLxF3MaqHr95o5/GszZefizPHRnBy72G9yXa0UhEpRzFKGP18Q1ODk07lGtxR+cVjWYb+qlddiptvfpMSWm/A00+/hF27tpDHf+EL38T3vvfw4iulyDPjGah4hJBtp4mEqJcwyVnihe6M1DUJkYhNgejHpykMoqeVrys8lGX5gt/npqi164REgDVLtveqEmrIbe10KgImrE68lyje8zbLq0QQz0rltFXGpb6BpVI5mVIEz71aRfQSPiiW5kxlcxC1pfm1mVWxOdGH2i2uDalmry2Vjsq0KHrSLY0fKUrHGn7X5EcIKbrs0syWgpRJCRzT2dONUrGI4qy9gSUUD6WBxCowMsg4isGW6pGUw6qERhZ79RIaXfbpx77RGcObb7oWb3nLdeQNbr31Htxww9Xk8f/59TvxjW/cRR4f98D6G1gNLUD2xe01LXWlVhNdnbJSNFdVYUfBvl/rVtX0oqgohe+gfKno49eNkhZ/HoKk+LotyqAo2nmaCFA9uSi3o5iMJjl2uAwBiqD44K62Or90v21Ebh97UptdkCNDXv2aF7LU/EU+IjpL41eWeQG9FD9yQOwGrYJANKFJik4uk0Eum0GxXEE5tqtDfGGtHx2rhyX+MZkCpcqOTbnZ2KBtFTtQ8OHIP5/NIpvNYHa+lA6uTeZGoq6vnxkZR4hiXfo5NEtmeC8hf5zwx951A66//goyKp///H/hx3/8JvL4O+98CP/6L7eQx8c9UPMl7rybFDlfWZPKY03mautauzHioLuvqVCgw2LwPUW9a5Vx8YjkOgro6u12Ty5mp2bif9BVB6pWGKsrNJ5nvrBsBUwSz0MYoek1lURQyM6oEg9bkgk0mahFwacJlQseWqLgKGFrqgD2yBVl3GZYETWizKxsV7EI1BAQVVi6aXETwMxngP4sMJArY/NwP3Zu34DxmXmcnJzB6YlZjEzO4tTEHE5NzqIo+Ar6RZJZ+xXVNP7MqbyEbzrmxhh1/G8CvL5b8reyHA6W9mTgNBJHJsvOl6jZHwDZTAZLOnLo6SygpyuP3s7qfz21P3s7C+jvLqAjn8XuI2N4/tgY9p+axFyxHC1+VKX1zMF7WxBfPEZLJbe6H9HhYzAFEoegJLnGn/mZt+PyK84jS+HP/vTz+OCH3oNcLkea84MfPIu//fSXSWObMShkA4t3vJRsmDKmGVAkac8wGOnNlRW+npEOrVuJS3/0tRhcvRyzk9N45vb78eK9TyQJLEsLE2RcMFRClR0JWCRjQoAqIP+gLDo7YsXv97nHqJ63iAmehG2T+kcKdXyC7ZgotE9mVd40EYD0lFd3dWu/CXMWSSeHGnoW+OCbOzIGawvH0IvpywJrChUM58roz1XQm63gvB3rcdONV8D5wvmpuaLbyHL+m5gpYnx6DofPTOPAyBQOnp7EwZEpHB6dwvR8scaMyOpkv6MJmGrHTmzxGlh0L0GjIe5RW1fk0ZkHnj1SRCni/kvcvMn2c279OQ2ooZ5O97+lvR0YWtKBZb1dGOrpwOCSApZ05NFZyKG7kENX7T/n787vOvPZ6ov8K3B19dDoFPaeGMeDe0Zw/54TOHJmOj5WG0JX7RFBWWjjm5R8pzbS4KTtyJQ3HVmgg64eKcsCTfjgB2/GTo13Wv3BH/wdPvShmzEw0EvSqxdf3I+PffQfSGObMUj8Ene+bvLa7d5r5r2MfkFazovePf0IEsHCiJ2fq7uWN95vXtg94hKtinfV5/V0dvf34G1//AtYsXX9gpOdn5vDf/zWp3Do2b1SpvxCP4s2X2yzC+pRGhe+bbiPnycX+gmmgRb+UKQNAQ/Ksl/2QPFxi/v6pfNtLfKk38gKqjpB51EdvZ8fsI6eK6KpoPpFz3qBUhrdzgxRbA6qGnZe+hBYeDxMFPN12fH6WXw5IAtTbPdG4BM6MsD6jgo2F8pYmi0jmwGyDE07d6zHm990uZRK57HCkvN4YbmCUqXi3nA5eGoKzx8dw+5jY+7tlz3HxjA2M6fLKTNeNzpWat9C6F8z6bbXRNE+DjfryMT5aaXmldOgGurtxOqBbqwe7MaqgSVYNdiFVe6/l2C4t8NtRDmtHue2ldOMymYqrn46ZbLzu7of7wvRfLTMscP5YhnTcyU8uv8Uvv7oftz9/PHYHo2N9cBO32SqyAVpMygt20TsVVtaQ5+Qi72idEnUgXDY+b3f+zls2LBKyZk34MO/80m8//0/gvXEOQcOHMX//sjnUEqoUWvewGLTHD7l4SNTklMilZJRPvezItV8sr4JBqqLUUrCyucLPDfO51uvOg9v+M0fR8eSrjo6nr39Adz2Z18Iw4SdS0WAehRA8b3UPe24AAhQ00zP0oKnmaynldkx64Gi9EYBgEr3lCQ1seJTuXTLjER9PI5WV2Qe6daGSUK0gzwEZElg7Xq2GzcoSaDhQrFKluBmByM5Z4zTsOrKVDCUB9YXyliVryDv8yZxVQOrTjFEpYrbeKng2NgM9h4fx54TE+5NmH0nJnB6ag4z8yX3HUWz82VMz5fqmglUmxb28VPwEvcgRlWnX0EWMDgnn80gn8uikM+i4Pzp/lf9nXMDamlPJ4b7ujDc7/zZjeG+Tqzor/7p3KJyHu8j/7gNKod7z7hEJZzCqOqmVj3/6clZ/PczR/Hd3Uex9+QEzkzNuzcNQ/8sKKXTfGM2pih16M39FtDJchXdb59tTNTKkcLALc7b1cc/8SEsXdpPImF8fBJ/9IefxU//9NtwzvaNpDlHjpzAJz7+T3DmJvFHfANLRqnE8dcNd9rHCy1cQdq18Ks4UzK/vfhCkvUerKOJk95kqMq2ay7E637tZnR0d9YR9Pz3foBv/rH+tUJhAGe6zzKu2w/5ZMhfiwrRsYKtvrQgjGZwdFbX7iKP9aQyGuWIflVW/Zzd/HJ36+gl8ojG0vxWpbpuK7LoTcjEDol8+TZXPHe577OqYCgHLMuXsTxXwRK2qPYBgtzAavA//s0EB7fRqTkcG5vG0TPTOFb77+SE836tWff9Ws6fpyfnMFuUvYRbfroofom7vlUl1c1GrXcO384NKOedUj1dhbr3S3nvnOrrKmBgSQf6lxQw0N1R/a/2976uvNvIWvxh6j+fHhTJJheaWc5oMw2t+WLJba4+euAUnjo4iheOj+Plk5M+uudPaWJzmMQGJ52egJ4dS88cZKqTAT796d9FoZAnqePu3fvw/3/ua/jJn3ordu7cQppz/Pgp/PVf/yuOHR0hjY97ULWBtfCtgjXAZTWPZ4d1n/Nn/aosNW4WRfvpKJZqrOrzJPAbjIaBVcvwtj/+AJauHV5YoFws4ZY/+Ue8cM9j0kXl4Vr8bQqti2Aw3BM1SxZIeLPn80DV54lishWIoVidSiiNlihLjEU2q1q9FVBW8pCkG1pKYg0O4A+3+HMhPncQdUjaOhBE52ip7a+2ht+gKTRzqagbBoF488kNnFcJr+zIYGWuhGX5CnoyFfRknT63XvdA2MDSbFbV8ebf13If73LesTU2XX3X1tj0HI6PzeLgqUkcODWFQyOTOHx6EhOzxRon4uhI+RZClq7ovEQgyWpNCqKbDr/OC9AHe533SnViaU/Hwvumhno73H/3dhUW3y3VwbxnqsN5x1TO/XbKuh8t1eIGa80VwOPOD9PMWpw7OVvCodOT2HdyAg/tO+W+M8t5LNa3MIvq6TstTWAGJyo4UXJoltFgEVPEMpsueeqhyqe7u7vw15/8LTLy99zzKP7z63fife+7CeeedzZp3sjIGXzm776CvXsPkcbHPSjAI4QyElUlDWu4iugQNwoN+/G8BFPUaNjQo0Vmkp4b9K07MhmsPHsDXv+r78GyTasxdWYCD37hVjzxzbtRTugzsdFg3sRVWQF6ZFCF6oznBdxEVtpnaz+rEglFVO375yF1AY97b79s9/bBPyGcMmEukogX1A+onH9C4Gs+GUHtWG27Ki/g57r1MoDmo2gpiBYBYU0sO87XVWmPdMNKN5ADtnZV3McDO1GG08gK4yPrGlhBG1dBCGDmON+85zyG6P03Xyq7t7aePzKGF46ewe4jZ9y/Oze6vGnuC7zb7IfVV4d/54aU846plUu7sWppN1b3d2PVYPVdUyv7u93bVdms826p6julqv85fwcyWe47HHUaTKSxkkGkuQLBRvCIYaVSgaNrzqOtzq2srz96EHc+d9TVQ/fHfUxVQrCnfrKE0u/zSPWWmtyICOR/pxePqbHZpGsM0txds2o5/r+PfIAshVtvvRe3fute/Ni7bsCVV55PmnfmzDj+z99/Hc88s4c0Pu5BPo8QCpo4tW9LqBqF6M1jzsvcvSNo78Xu1W9YqHps9vO4WWX3U0VjvvfpMRwVzSp6VLSrerXh6M7l8+hZ2oe5qRnMTE37HiAE3YnqhnSQCkqLnRcAAerhhahXo9e/CUCcnbKIgCi4+wml5rcF5UUYkbetRLgCksewJXERMemXMPMNNj78yoKAO4/V7zBo1ohOXH3p155W2TEtkedRtLE5jB5FM1fYtIpmq9Cr5jJAZwZYkq1gbWcG6/IlLM1V4BTepn527vRe4q5hsBpDF2oenTabYH2H5ZMTM9hzfAJ7jznv2hp3/35qYgYzxeo7tmbni+6fRbcBQU+OVG42ql6E01By3ynFvGPKfedUzvl9Fn1dHdX3SznvlRroxIpe588u9x1Tw/1d6O7I01HVUpnaYJ05pLFc8CLNEWh63QvdBV/bqHrhe8O+nr7AvRV4xzPH8Z3njrg6NmrqnVmmDFZnHWGvgXv3jCr0GS0cdS1NnkOzt61YSPzad54d79ixGb/ywfcgV/cIrBjYcrmMb95yN2695V685a2vxutff1XtCyT8BTE2NoEv/PM38eijz+lILLaxBm9gsTSzGWhsvLThRkatUogfa0iiAbo5QBsKKX6WKUJjg19bVNHxi0FvR4rQvEDIV/SL5wmyPf1Wp59X6XFkR4dEoE5ozD9qAmts1SyOIflllcqFJL/h9iefcDfwx+r34uaL06Im2J9h97JEXchV0cN/Ht7SKDuGFZudn1wEmtK4CqB0zluF+nLAYB4YzJSxqgMYzJZ9X8QeBvXFBpa3isIDkhxkba26sYR1KWk5t4zzKKLzfq2jZ2Zw9MwUjo3O4OTYDE4779mamnP/dF7kPTNX0ny4Mgyq1blOM8p9x5T7ninnz8LC33s78+4jfM47pqr/1d4z5fzpvneqA10F7iXo/OEFTyKlIUQZwyJFGu//dF89mZIFqfu4oc4zLF5hmEXITSx249p6FaBYLmPfyCQeffkUnjo0iheOjWPfyIT7pQS+PxSb9+OVj5UUmwitqrpE6ziBYDm2aAdTPvyqV1yI17zuElTKZQwvX46eniUNCDrfHnjq9GmcGRvD9+99Cvfe/Riuu+5SXH7lDnR2dmD5smXo7Kx/x7WzyNzcHE6cHIFzA+ueux7HQw89E1o6USwQcQOLGEyi4Kyt1pR7B5FJ8/0KWV0RPt1uKyE0l1mKUL36UM9vN5evVO4ev9WJxM//jm0PWBVIpWLJiY5f5VoMQCo7YktbsKeFv4hjMsVNs8d//DmDdeFUObXGOCPFToxK15fLYGW+glWFCvoyZfTmKuiIoeVSbWBdIRY6NdjpNqp0VYxdv2Gv+kN/519z86WFd2yNTy++Z+vQqUk4/znvOzo4MomJ6flQCDvfsud8E9/S3k4Mse+Zct4x1duJ/u4OdDvvlqq9X8q5MdVVyC38rpB1X1q2+KNqUC2MJDaBdJpCbJIjlA/bHCIIkLw3N5A8j8WNrbhk2EiUuW6494/6Rpjz3rZDo1N4+eQEHn75FB7YcxIvn5rAwkVIXT8Re0KpS6Be10x3dQr7CxIIog8K9bzxTVfj1ddditHRUYyOjcG5ZeW82iefz6NUKrk3XDs6Cujt6XGbW1/819vxzNN78NrXXoFXX38JpqamcPr0KCrO/zljCwXMzs27ttzV2Yn+vj7k8wXcfddjuOO/HyAYS/xDMrt2vsH52kDO+zj/lPUOa793Xvzu6sf/a+9LYyS7rvO+erV2VXf1vkx3z05yZjikhqRsWRKlGNASKYvgIJIdWg4iy1lgLQYcO3CcAApgCEhswPafxJLs2LKjwFYsZ5FsK4QsU4oEJbJ2UqQWznA4G6eX6b27uvaqF9xb71Xfd+uur5au7qkHdHf1e+ece+45525f3Xued0SQ/EMjgMliS99I6KPa3n02puziqwvWYXvaMHBNNyugMlRfGbEjfuGtz0/iRd7ppvU7Uqn7VYjf5m2devzCug8jQAZryZxmtmQ2AdBE7h24vA9DpJsqyQKFDTNZ5+/r1ccdf6PL8yppunC2snd3DMhK9dVRdeP9Nh6TI2rkEE6lCwsFK/d0iLgjwFWHdNGJIbmITqWAc0kXk5EaonBpTqteXi0Almnbo3QaYlNZvqgWer4lKSyjKavuHuTYqtVcusNmbbeIl5Z38eLKLq4u7eDa8i7W94pNUCsZczA7OoQTJMfUWBqzY0M4Mer9HRvCaCaBGM0xFQHBopp5pry8U13L02XUVgVEgtN2UosalcFAETp63XOqiCVIxisf2HVFZPHgmCZINGCWW480c2b9cHkHf/HcK/jrH6ygLH2LZi9bsqAs28GJGYIDGQVs2rGyyoZzaA8iaYiym7So5tN+NX763X8Hb3rTayj4VCWAlX/kmGIyjSAgbTcajcJxHHzoQ7+DleV1enzwXT/5Vvq8Wq02j3ITWv9Yd8RxEItGUa+7ePrpr9Dk7/14eTuwVMblZ5MGHX6zwXUsYg7RdiaBJwLCRCrbyGL5ZXwm8uxNZztFti9hwNFVC5iiCXxHP0ATuuqWVuEiR4mcwt7T97/sdFnWe7M9lmi877EhBsX1ygKdCLnuDDu9skAHy9F3tDR5bjNRs2ieoDemrcvsp8sdNEmPRMW8vErDjosfm8vgyQsLqCRSuLmVxy2yQ2WngFy5glK1jnK1jlKtTl8130xs3CM9bYvpYFoo26KD9IqgI2BhPAJMJiKYj9VwjpxAqWmOJLWnjZbbGsAKLE00AJPpMobQKWklD03la61wQEASxZMjh2OZJMbSiYZapuXIJgcW5VuTCoEhXhFOaseALEvASQti8YCTpTWaAJakgsbHCv2RQA+A7Zcq+D8v3sMzP1imxwy3C2Xk/Tdo9h2AxNrTdnRkZ8S+HP0YzHtQOcf2iuj2curn3/dTePWrLxkH17/8xd9ELrePN7zxcTz11NvpEUKTi+y++tM//VxHcxaalGtC4yVx50wd2FXF9XotvuZu+LuumqWb9pom6naDxjZ4bem7oTPb8GxGpm7qIpatAsNMu49+snjvLdhHJfpNmXeIzkG6531UxeOhiugbIr5mOqe0Pmd7cnvu42HZQS0kFuhOyB0bc9N3ZZFd60YX29HqxnddSwwWaDIesxx20o0qF5qI6J4lOZUcF1MxF/MJ4JH5cTz5xENYnJ0MLNBJAuytQgX39oq4l/N/StjYL2G7UKELNPJ3p1DGTrECsrPlMK9DLl5b9aQTwVjMxajjYjYJjEfqGHHIFoPDtZuvOAWw/r7kCGGgCWnWIybLFZamhb5LIJWJXlov9pig3dDQ8gsIyC0tn46GQSB0JjMpqyM7skKAWULdGDkCIIwA/LdJzqw7W/junU28tLaHm+v7yJerOku0/7yvBifLCY0wZPSjp6oUHfev/pt/ivPnF43t/oH3/3uUyxU88cQl/Mw//nvIZjNGvF/5ynfwyT95mvL22yU5QmjQWzYtz55A9N846HuTOU4oQit0Hjp0a5kq6PcUsm9yTOXYVpgt15a3v+hNG3K3LNlf1jji2pgMRKwjRU4dOLoHQcD38zqnyFUauLwH7joORagCRdcPHJM+odHqBHOjPvGvDD47LPfEnQjmYnXMx1369rrhiItMwsFjF07hicvnMDrSmrz2YLdJsI8r1+rIlarYK1WwV6oiV6xgt1TByl4Ry7vkp4ClnQL9mytVuobP0Jmb0eL38IKCHA2cSzmYduqYitZBdrtlHBeRPgGtWMtIASzqfsV6xmCp08LeCZms8iY6BMLAgMGAxDqy2Hhl+/EWQX5PYRHgFqTN4mQ8fHyayNbSBM6DiU2nlcE1eiN6rihZx2G8K4stlFmnC2pEEr3fJTtaCaB1ewsvru7QXTjF/SJye/uNI2uqKaR1gPUHQ9mNYLcWQV5lU5dkjtJ90RR+Pi3qHvjV/m/8xi9iYnLUyGjFYhm//Eu/SUGoy5fP45+85x2YmDDj/eY3v48//q9/idx+waisXhIpkrirZou6maTueS+raFuWbppmI4/tyFUjiizQeV34EO6cnUXrCn/oF2nHa2JjlQFtly0gWySyTpM5le2TuzEJ6nLVj5Z4k1bHO42fkLf2AaK5ZdiQOFr2HGirtUA7IWc6nGmVOC4EYVvVQZttnC5Ud7R8l2zSjeul9r8PxuPA6XgN5xIuYm4dUQ/zSybieN1jD+KxS6eRiMfEFQmYVDOQRUCPFtaY/EIkt9BGvoyX13O4vrGPlzdyuL6Ww62tHKq1MCvPhppk2eN96FsHZOIRXEpHMO/UMIQaHLjg3iPXd7pPTo3gyqvO4tTpGcxMjSGocJsAlrDyApk28yW/67DhkfUTVjK65LpAk2AHCsvybJqWlFbwwPS4oVAmc1Onn+55Sz4rW/tICrAGsNg6qQOoWq3hztIGXry+hBu31rCzS8Crer/j78aGjUYcTIxlcHp+CqcXppFzo/j8S+t4+sUV+iVH8+KAUT7KTWYDxkppCEm+qo989N/ShO0m1/LSOj784d9FpVLFgw+ews++9ycwMzNhwornn7+GT3ziL7C9tWdE30si7gihYFUr80pjNG5siw8kbhfMxzqHs/TANjIwiS1aVSFRWOt4j5SBQvuAHbNNJuEDLCW0qXvDyPcNzT6By1moaxK90fY+KkU1lIpalQiZEPdJti5nQ+I+csD9XVUeQQ0TcvfHkNiME3WiZBGEpTKqWfjxa2hdL8AunTq9ZibySF6lJDmiFgPOJ+uYcOqgOcS8i4B9w+kU3vRjl3Hh3Ly4kk3FDDVkyQxAr1q9jjvbBZpn6+bmPv1Lftb3SzTXFtnhRXJtkb+VWr25g8tPjmvmmd5REVAwEQHS0QhOJBuJ2LPuQWLf3mnSuZJGRlI4cWISJ0/NYP7EGDLDacTjMSQSMUSj3Bvz+GJJDLSETgfAKmX1JGiWYQh3znJdlCTEtLRoT0MhQzIxraBgcksnU/nce9iWDK5iOlmBJaQfGO0eKwzyu3WgUqnRXTrFUgV3l9Zx6/Y93H5lHflCuYvB0RvR5OUEtB8gb9BMJXBiegyn5qewMDeJkXSKJjxnL/Ilxt/c3MDnr67i+eUdbBbK2C9VQY6nHwSm6disr6NsPGbn0H40Dw+n8Vu//cs0ObvJde3qbfz2b38CBIw8d34RP/dz/wCz5Ni9wXX16i380R99Bmv3tgyoe0ui2IEVaDGKbwkHq1O5y/p/Fs6vNUTjuQmk19uwHZRmNB+SEbF9LqE5ThOlIxsaopZoDuGatmPfPCIg6siabqB4OAu0F3LhyjzyXCJwmK2UDOJt7WiF5tcAMKpJ7lE0LXlbHdlpNebUMRtzMRevIylYXRLg4czCFJ587ALmZsbkVTUAoZrM/LgXEvwi86N8udbIt7VXwirJubVXxFquiK18GSShdiPnFvlMEssfbsJzUs2ReATjUdC8VjNRF1NxF84hJ2LvRvzGYg5GsxlMTWcxOTWKiYlhZLNpjI5lkE6nWgEt4VyIu2k6XzKlYydgxjwhrSXBygIvSbMBU0KqQdkC5RgUakDSVKeFVsDM3hLJ1oFYOn10z9vZjUV3XBEAip/MexaQ7cjibF6r1bC7l8fOdh5b2zmsre/g3toO7q3voFo13bbWThB0l3coGUd2JE2PmY9l05ieGMX0xAjGx4YRj3LvSlX4az1XwneXd/DdpW1cXdujO3JXc6WWoaRXK/652Sn82offZwxgPffcVXz0o59CrVrD/Pw0/tk//4c4eXLOyPi3bi3j4x//NJbu3jOi7yVR5PLltzUOskot73tV1vP1Ut1+LIu1D69fr8K5s3axnaKz7d58yd1ZnQfSGAvIFqZ8U1atuwaoZY9DqhOtTr2u48dnUYmD9ttjtx9mcTYhx+s5CBSJ52yMqp8mrSMZAAAgAElEQVRTUTMf/KIfbbpxdp3Y7bWxaSgTPYajwIm4i7lYDVkHNLdSVLItghwTfOTBRfzoI+cb+a5UFbEBoaQAVtPo6g5V9JR8i+85iSSG3y9XsVf0c2418m5t5IpY3iE/BSztFrCyU8DaXgnkG/9uXiMJBzMxF4sJYMitYiQKJMi2i/vkIq4hu7AIcDU8MoTR0QzI0cP5+UmMT44gk/F3YXDzdtOGo6VjCLS0Cqe0w9tLX2sBHIkyNsCWSRkmYJauGQjLYW7q9NCBYawpdLKEtCKAThwoJB/S2toOlpY3cW9tG7u7eezuFbCfL6Le3F3Uy0DpXFnki46J0WHMTo9hdjKLibFhumt3OJNCKplgdllxOc0MbU524K7tl/DKdgHX1vbw9dubePbuNraLFaOx2R+P223C5x84iV/5lffCIYkKDa6vf/15fPwPPgMCWI6NjeDn3/eTOH/+pAEnsLq6gd//z/8TN28uGdH3ksg7Qiib5nhJ2iia670OOrCw9e95N/n5mE8rxHGOArgjWsXL9FYBfaq6iox0FGxjH6YqXIVfD8mseTwtY2/LvuCQraZU/YC/Nhg4skcu5FudCHkI1weJ2qxpO+5R5QfFHIYFOhFyg/6h6bnGGwz9f0WdrqrVqTEY0Tgr++4iXC8RLH8+6eJstIYTiQZgxX0HLlT2za+9jCsXTyNGvjHXgldmE/qAnHZAL6qxJ0BVNHPSgwBbJOcWOYri594iO7jubO7TPFvX1/dwfT2Hl9f2sJMva0876Zr4Q6MJLDgVTDs1OPVGLrGuZafXKdNHz8mRIbIAjMWiiMejmJrK4tSZGZw+PYPpuXF6X3u1+Jyf/FjucBewa3UIELAC2NZtoQfb0Js7G/hewU6rALUhWNDkMQGgfGKdbOlz5kEoMItRQKWDTr+wbyz01+ii3sKNYH+/iBs3V3D95RUsrWyiTI7C1Wqok2PObbiyH1jTQwksnpjC2ZMzWJybQIbsrHQcuruSHBuUX17NWQNYGIOAWaVqHTuFCr52awOf/cEKvnN3i+ZSbFyykVSskenITuiuPPYQPvCBp1qOPcrq+uUvfxt/8sefRa1WpwD++9//j3Dh4hkj921v7+H3fvd/4Nq1W0b0vSQyPELYS5X6sSzT2TRPZ8rH1zksX3u2kw19ds2wPR0G3CEtYAIm8asVUpThfD+kVgM2oQVULc13SmAWKXRUJ1x+OD3NICx6boHOhFzP1e6/Ak2nmXw7VtdE9+VOs53S/rrRacu+J+gXmxHMJuEAaQc4majjXKKOIXrsRX8RcIEc+XjL6x7B2YWZAwbZeNUC8GkGNvZxgNSCL1ANxVsliUgl8CZ76NJE8rfX87ixkcOtzRz9+8pWHoVyzcu5VUPFy71Fdk8kohHE4GI87uBsCjgZryFSZRIR600/oAAwNJTA/ALJozWNE4tTGM0OIZ6I0Rw6FNiS+pNplbZzK1t63lPNxXq3R3VPfqfeRmkBGjTQFg2DTp7wOXOTfLQGoZj5WqjyfWdyzDpZTbZG3JEdNuVylf5sb+/j5q1V+nNvbZe+QfAoX6Tdkd245GdybBgn56doDqvpyWzjKDB7GVW1HQBLwAtgZbeAZ66t4Ysv3cOdnTx9422xWuv49wVPvuFxvOc97zAGsP78z7+Ez/7ll+gOO2LHD/7CT9O3EZpchUIRH/von+H733/ZhLynNJHLD5MjhP7l96D8Spef/XI9rYhNVo1u9609NZ9JYQP4x8RKLA0/jutCRvfctvx+oCffkp5NuTiZdHG7FMH1Qruzm0OqFb/eY8dptt9QOf04OviQ3BEsVuYcf5IYLuZUUkXuF5li4PK+CJDuKqHCggZBIbU93ZHVnLKFa6M2jlWVIGqnSQcYj7qYiLr0mOBUtC49HijSI0byXc1P4/VPPIQ58kY5fnrKMwXAK03N+MrQ/w1tKCTzbqpEyPLsqsoWyfPukZ1bJCfLvd0iVknerV1yHDGPnf0i5oaiGEMNw6g2dle4LsipIPKX/tS9v949souALGrq5C99ztB6PPR+k7fxnL3X+Ny4fxwvsktrNJvG5PQopqZHMTmdRTY7hOxoBpnhoYOdWoZhRG1kQxvYgXmELGwCNsn6eZNqBsJNEnu6kOwKmOUpr2sPOt0M3lhK2lyhUKbHALe3c9jY3MO9e9tYXd2mxwKP8kUSlGfJUd/hNP07NZGlYNXMZBbpoVSjak0bCoyptS8jgKU14pPwegYnO2uvreXw7NIWvreyi+sbOdzYzFMw6+Cyn+X63cbb3v4k3vnONxsDWJ/85NP44he+0eyjP/gLT+HKlQtG4UF2bX3so5/Cs8++aETfSyIPwOIRKL+H5TxJEP6mzbm3D/pa6/CaFp/ZOzG8gTpVFi9HVmn/vm25OiOGt0C/cLLjt662uuf9UqdO6jGfcPGvFiu4NFTHUiWCX72ZxFo/vwhEtRgVhb9tk+ikce8rWTKUUOcUvYMGLr+vAil8ZU1xUn3IhdfhSHOqDdgAtPwdQFYr46ZV/BJsv0fwXUYwmsm4ixOxOgWsslFgKELeImh3kZ1Xr374DF59+Ryyw0MHE3SZoCYIZBA8QvDKn+sa6CkDsJS6ScAK2dEWBXBFNZTwERCp4u+0YgAlcp9M2n2AqfHXA6lAgCvvhwWpKD374/MQSY03K7LPfQCrXiM7QAggVkcAGCP3COhFj0zW4dLnoH/9+xRA88A0ylvzQDVC633275MyGjJ8GtFf41WogeODJOS4IcmXRfJojWTTNEH87Ow4pufIGw+HWvPSaBsB0/q0tAp12+G1toJ+I5RWpA7gYQXo3Bl4LiG2kkEK9xh8PhW/9BmXa4k3ik4nAYhFzLa1lcPy6iZWl7coaLW3V8BeroBSqaI1ez8TkOOAJH8VeVHHzOQohoeHaA6rkUwKTkTyTQC1IbvWZmqota9Hy8eiKZ8OZHTJCz6qWNot4s52Hs8u7eDrtzcooFVR5BvTjcfvfOdb8La3v94YwPqD3/9f+NrXnm8CWD/73p/A619/xZj/Dz/+aXz1q9/tuy8puCOEkiBo2azerSZgMAnpVtFauboFn0yADMRiW4gsXLVKdYyAX+b62vGa3Y9gUseMbCHoUrqO3zpbxki04Yn3v5zC8znFDEWEJvhzc75Zy9ZD/dz8LGx3dEhtncYO1MFaysAkvh2LQqLX896j459jpCnbkZsEhR8o8pA7RsaxqYoJbCsbPf1yWjtaVqpPJRt79WNzxHhialNzES3ZKXw+VccZmozdRSziwuzF3q3SyOvN3/LaR3Hx3Hxr/iEdSETFaXqyjgNYnkDyR+ZAqd6SB1oAi40OxoaqqkfYuSbjHWMexrYaE9N1ICkvsG5vAGhN/xBwjFG98dn73Xzg8XjlsWllAvTNJhWUScSR7D4E7KpVCQhWR5V8rtXom7gan8mzGmp1co88d+muNUpD/lKwrSGX3CevoKf3vefkLW10l5u3EI1EI8iOpjE7N45TZ2YxPjEChyYc01wUlLScfHksJPVRN+foqlWPsB8yXvh7NukkiNUMI4USOv0Czzli8q+MXyk3LIh1IJQAxkt3N2kOK5LLiuy4IvFHYvEoJ14nuxvJrqozizM4c2YG0+ON44Ak32HLsUD+9Dnb58riSOdvv+9p7ZB0rTYYDKpymGflWh3FSg23tvL4/NVVPHNtFct7RYOygiTk+OAb3viEMd9/+o//Dc89d7CD6l3veive+rdfZ5wE/lOf+is889dfo18y9NPFJHE/GERaFeRHZ8OJArtw5hESv7iWvlvXkeued9u8utk/Wz4b1bwB2HrIZHa7Lv0p33SJIAqp5nxGP53tz8p7WpFvs993ooonMjXcKDn40K0E8of79u3O2Sv8ysx6ntc5pY+7pO60Oh43MR0GDruXP+7e7rv6qfqEQdAYuCs4RztI/C5Cbfi5h2okDWIzMfImt4iL8RhwMlbFuSTBK9qb1JJEuxOjGbz5tY/g9MK0ePopskCzagYgAeFnyejnEHxNPRQ5rwiN9NigokyRq9h6i3ZfGYFQAmVkfAGwyy+c8HsvdDKIREpi4hul7n5BEiIZb0tVOUKdy4XPmZuh+ANObPyjkyNgMTW9EZ1uuDcSYkFkBCR48hooqHqLl4k8FRhFijIEHRpaMcS67k4o16uTBmghQFWl0shjVSyWcHdpAzdu3MOtWysolY5fLrt4LIqFuQlcurCIUwvT9E2B5IsMshNXeMlsrwMetaHqCQgFZHnxYQ1uuihXXLywso2XN/N0NyofakK1XWD6x59E9tSitla0qyHg5zNfQn5ppUk/8aqHMX7lUemOXl7wxndfwPZz3wMYAEsa5kZaNZrUaq6AZ26sYSVXRiUEONbYgeUbrvlNgEoDm57XtCZHjU4ETPE9oqwD5kcOlq//bCuqhWjs48db2RT5qHn6sPQlNs7GyLEMYLUM7HcSvNLMDaTfJvuh2n9helhu6mG5pk4L5xxZOx+4vIcu7reibENugDpyHgw7esoDwXTs5cdj+n+kcdiw4SbzfoJgApmoi7EoMBWrYy5Wx5jjIqJLpmwQz2TKef7kLF535UHMTY+JFy5SsEVYS3GprIwWeRpbSB9HGkCVaCZPeJR6Cx6K6Pl7NiBWE4wSVF6qG18Zj9A8XAT1ljCrZAaeWdhKKJO5aVwmF1sm9TeiOWiB2ubByNPNp4Vdr4k+WiU8Ag2mZKyfCfBEJx0GhDqS5nMJoTGAxRH6/xoDFgyhgIfs7CNHAHe297G1ncPa2g5WV7ewvr5Lwaz75RoZTtHE7ORnZmoUk+PDSCTiweoT+/k2ZAdDVbzo4kT25kcbPn75z2otjRNFAQoeN+Lg2tnL2BseNQqNWLWC8zd/gOHcTpN+feoEbi+ch6t8S+OB+Jn1ZSzevo6ICmRq0TkIyJEj3/liCflSCcVSFUkvIf9KoYqnr6/hCzfXsZyz240WuXxZlcSdt08ne0QT2/f7jFjUklQ2Y+nZpaFk0mBioi7Q2EySex0RXaju8RBp6zQ25Hwn9ntzOx6ektTCxIHsKBlseSy3qADV84H7j3VgyStnGzSDzp6zpciAJu3YrKMNK908mg/ACRGgRY4DzsRcLMTrNCl7Nuoi0QHQytePfPv+xMNn8NjF0xgdScsRHynY4ksyCEyWpPnZgI8UIQNFVOy92IGlBGPYAb7NY4M0v5p2NddwRkAnhYJhfarik5Wtc7PMv1LfMy3MSLaGiE0tbHKYsEWcTgnzHiE8pRqkkco1DCstoKWTExbMki3K/amYMQjmW6BxnJDssFpZ3cLy0gbW7u1gZzdPjwXm8yV6TPV+vsi4kM2mMTE2jFMLU/R44cT48MGXGyLzkCZA74cAK6mxg2BL0/66uGJ5FcWL1ZKUyYSKKA5q0RheOvMwcukRozBJlks4d/OHSOf3mvXcGp/BjVMPGQNYE1vrOH3zh3AIgGUC3Lou9otlbO7tY8v72dkv0KPbs+MjmBsfRTYzhLFMGsTfhUoN31/fw6dfXMYXbqyjEEh2r5jCNt5CqJoq+c8sOknZHI4X5c/jeFwnkJCNLbeFkKuZ2cTQyOvGRCJvylYGfl36ET3gbcf+fxh2PZgPiTThoUPWsiEi1tjbA8IOWkDkNH/SKAu/wwvFDla8H0WJOm1VqxI5ovUe3xMOXN6Pvu8DnWThp+sH+mOY6gMDilQwmXAdGNBvm8PRCM7FazidrGMoQvJa2Z14MjFGOpXAm17zMB46K8h35QtQAjT+QGFQGiun+dlgPhsG2FAlAOtk4nYpkMPPLRlCIx7fnl5FTIGrpjv0YI3UY5RVwi/VXXNcUcXXooiBrbRh58nQhZfueaANmBIzJ+8sWAxaUJDEaFHPrsIJQmfIZEKmO2JoDCoJCE0W501rMMQGR9v2c3ncuLGKl19ewSuvbKBarTbzqpmax9pXR5whFovSI4VzM+N41cXTOHtqBvF4TAOi8MCCZwST2CKkoRK6M8KtYkiz21AgqxxP4vrpi8gPDRt5d6iUx9lbL2Iov980xF52HNfOPgyym8vkyu7t4PxLL8CpezsCOb3ITsH1nT2sbGxjeWsX9zZ3sF+s0DyC5CeTSuLy6RO4fGYR6VScglbNY6KMrP1yDd9Y2sJHvnUT1zdz2q/LGjuwlLhQN3tCE9OxwSibkLGdpXaEMSnUkIaHUWSTSNoqvIf8ks5ktmaoTkfJGnZXrSt8S8sAJn6x2lH1BsI6YwG2SYlCVNfkOqPFQErAAqI+ImxLlJtWJJFv0/zQMMAPj2mo9ibkjqnxdNXiR0Ld1y/+fKF17mXaC4jasWw8jkeAZMTFVNzF+TjZdVWH06VpHxE7NT6CH/+RSzi7ON2YxMqAC5UOgWcWoElYPt7FPhjFtxslgCWZm4rUZ+81P3OEsmq3gE4+GKWJ0xY+UoDh7qsWXSTKhfWpii9gc4ZQF8PC595NYz05m8p8xZD5idfZVt4yrtrE6WEtIYwAAY6IW+cL+ySdXB3aowWwFARG4IOgTswtsoOqUqmiXKpgazOHm7dWcfPGKu7d2+m7t7jpRq5+ez6cSeLCuQVcemABo9lhJJMxmvC9uVANncxdAUDp4lF2BJE1nlCGd9Mo5g6EFZNpvHzqAgopsmtZf2UKOZy5dRWpYr6JQ+TTWbz44KOoGwJY6XwOZ174JurlCgVdd/eLWN0mQNUuVrd2sEVeKsAcL4xFHSQTcUyPDuPKA6dwdm4KiVhUrKyg/tvFCv7w2dv43y+tgnyuSfwaaezA0l2C3twfuPlHIjSDd6RsJtWiBquaqCDJhEBXnY4+NzCfsjyZITuqZBvCerNkVYWELqTaqNyAtRsWYCf1negnuqHjfSmTbWW6vtOu3Zu4XDYM+PftSrwvHXj0K80Hii4ojn6NO1wDVUsTtSBxqyK7qkYcktfKxVzcxWzMRYbmtereRSa1Zxem8dorD+LE9FijIFqgJdhhABI0a8GKtgUFZACHzEjkvvSZYR15MpF9lOAKP2dmiKW6ieawTn8cG1TWlY0fLs5VPmoJcQMbKYdLH+RTKKtrWGFjunvNNbxk7ZLI85UOiCIadAOMCsgVFKAtkxu0XKBQKGFnK4+dnRzW1/dwb3ULq6vbNLcVScw+uDprAfKGwtmpUZxenMaJmXFMT2Qbx9DJFwtNc1v6tjkRFQCUxuqHfOOkBfCWT4/gxskHUUwMGWk1ktvBmTvXkCgd5JcqJ1P43oUnUHfMdmBhfx/L/+UT2NzcwXYuj1K5Imyaw0NJzIxnsTA1hrMnpjE3nvUSxSvsogDwXri3iz/7wRK+encTG/lyS5kaAEvX60rsZzpJ1c63/JqxevTjMqedDiqkjY1Ct1tEvfOBycJYB3D1Tttu2fuYymXxFL4Z6Jx6TE3SH9WSdeA6p+hb2sDl/eHhvtZCNtzr5gv68OvrandOObaVsStvF2kHmPcAKwJeZR0X0R5MQVKJOJ64dBqPXzqLTDp5UFWbY3UBEMFQ6RYAKwQfi4bpgBHRc1WiXCFgxUQCzxsGvDLmYQxsaCajnFc6ECosgCkC91RAk1APg/OxSv01htLZUZdEWcfPdhpSWhshfC/kd6ohwYAmKKDr3TQL/3bALCNAyrJ+lNxFqVTBfq6IQr6E3d0C9vbydOeVHWZlUHfPfDYnenmTsbO6Fm8Eqt8OgKPxs51hGmCUxH+kPuSM0NBQAhNjIxgdGcLISBoxx9/pY+nTpuoeH8tuvMTvPoC1NzKGmwsPgBwlNLnGdrdw6s41xKvlpi2rsTief/hHjQGsWqmMr/zaf0C12JpkPepEKGh1fn4a89PjmMqOIJNKiF/IYgHU0bq5wG6pim8vb+O//3AZ/++VjUCVW48Q0v5K1eEd9iyRX0T5I1Y39dIt3Ky6CnZ2YhJ/h0TTak9RB+jf4xemLPRoYr1DquSgWNaBvNP4psU+H1iuxxbgQSV+YilriXI1RRJ1Lu9mL9tjgw6K4xc//CTNNOREQ/AgUATjvGmbNetoTd1DpvNTMRfnk3XMx+o0pxUBrdpZ1to0nsxQEn/r1Rdw8dwCzX0RnIH6wcNJ1IIeEj4+pqX/G9ReBnh0882DbJnNz5wiMtVlRwBVppKuiA12YMnsIwqOMP5U8YQ5NqgCeIz0E1RMA06yLT5QhPyfg0IMQpQSa+n4uYFN61UAWPyyx0RsCxDQCpZIe0klEKV4qOTzlbYAOxhSsruq7h+dUoAttBRZ3Y30Y43bajMT0zd0kBRGzrXKLsoiSPIl4wkUIQB0RCoI1fJuyuzDquSFuBONqN83obI16ySezpRP1yZk9ZTJZ+5X4wmsj89iY2wapUTKPAH79jpO3b2OaKWCcqWC1c1drGztwXnXU0AsZhw6hbV1LH/jW1j59rMobG6DbN56cHEOV86fxOxEFol4DFHhkcT2QT0StrlKFV+6tYGPfOsGVnKlRtcnPkKo7RH1ed99R8pmWexzYxPys2KziZ7/4mjjYkITaqOck2xg59C6dJqRt31n5ZsspmUh1VlNBtLatoDpysoU9WxboYEAsQVEDuDv8a1O32fx02XRJJ7tTUTPBx47phYwnQ/oguaYmseuWmJjOmgkXh9ygMV4HWcTjaOCvb5IfqvR4RTe8tpHce7kTGvxNjuTfG4ZqCOqnAkYJDOKDJyRgkfdOD4oKEwJtLCNxuDNg0rAyyBeAr5QzA9VNmssQwSxIXGMDLiSiJGJb5bZaeBKNzzq4teYn7WPhkknU9UxaMOAjTlPkJZHdzRQI0AL+MhAGkVFmywcr7YsXyZDSD4aABIBbVQ7k5Tm8B6a2JxO5dhg4EApI0DKnw/65UqCi9eHtW8nbSNKnh/wJTtGauKu6RCBTU3tSxxvHDNMBEj8X3eiKCaHsD4xh/WxGWPQio2tytUXsf6FL2JlZZ2+EdAv6g3/7l8jOeYd5beYHFTzBRSvXsUjtTzGnTqcmpfYnZUh9XH7bfPubgG/953b+MqdDTR2YAWudno7CysISWWDIHufp1EMnO2qE4rfNNIP087qisnAJHYO6deS6x70XwaFsumAycoCvFN4ZtVzEX5hVfiAOJwFbJ3Gt1LzNi2ilIFO4eoy4DoSFrANObZS/Tt8HbLpw4ye5sZUSSeJ2AlQNRF1MesdEyQJ2g/jIuDV/PQo3vSaRzA3PSo+TiBbzGtBBcNKsWQBFgP+FhLvhojVvycTa3pMkucX8UnLYGdkxOMMoZaHndl5vLqzSjL7yAYX5X2BgjI7y/yojRnRJEgFOmpajcKnyhWJLOY5lwlL74TN2+0MpMsbwQPdUkglKwwIQOsWFkDwDWNRjwApB2B5qrSYW1ivkDrzSInO3lQndgRhdVY0oJZ6asArUd11b/ZT+lsDeoge03sWvhQ5imc3sa9fphTAUTRAzkb5oRFsjM9gMzsJcuQv7HX3//4Nrn7ms6hXqwERr/mlD2JkcSGsWMRqVUxsrmFyfQVD+RwirP5CnygMqLVXkKBSq+Ord7c8AKs59rEJ0JjOXdoj84NmaFt0gVE5jHShPFakLtINJlABDXV10T3vXnVFayDRJNuv8eFp2j0bHAvJtusudnywDedjYbB+q4SsJfqOUjtJxM3WkH8+cHm/+f8Q9Gkv5A5B4X4osnMdrd8Gx6MuTsTrmI65GI26GCanvw65qgTAmhzNYGwkg0Qihng0ivRQAiOZFIZSSfpGokw6hZE0+T8RTFthDEZoask+lgEfMjvJwAJyX9YZSoEiyQP+dou+Aj5pGfxc3CPU0vO9vMGRNKFMwzr6xan8IdWZ140hNI4ZRgFrHnV6Ff/tgsI5brMsC5+a2IrQhGnsum7Ipv9oWe5YAAcyQMcvXyKKVlm66O3cQrlpBssFtip3U9eOEqpsIlyecpXSHiP0C2D4THdt6QCsMP4karDdHludTgNYuiU9tS9rF0kDksW7CxTLFfoygFyhBGfxFHbOPGT8pkFpc3Vd3Pril3H9s59reZnA4//ivZi4+JBNS2+hJaAVeUPhwt2bGNndOniuqKewQGn78jsqcUfAHCH0CW16Q7ardg/eAOD3LmyP7ne0lMXj49hbO+JewR2yctot3+dnjW9jX5PY4icuJjwmNKq6t2sXdfmisdW3Gm/RMFFrUvsBTYcswDqIH2xMndrdcOtQRY+iGJOW5g/M5i1NJlXU3etC4ihadaCzoQVMwk83R7hP+4ZEBFhMuDiXqNNdV+T72V4kYzf0bOtEF4DjROA4DpxIhO7Iav7vRJCMxzCWTWM8O4xMOoF0KonxbAaj2QzSfkJYOl4Yzp9YMhV4wGuqAmdkRcte5GR7RDKgswXQEdgtZXB0kJqRXxCQ8vy36Rl4OaCewieyR9Q2gsarcm+zahyRiqflmXdDqpei7qY76VgRupg10sMiFozi2cC/IhKTRXwLDXdDJUO26OWwgYBqSnmSh1odBOs26QJbYSjR8TZpXfw1cQidqQoen5GP/HhqI69VAKyRBLFIF+0uHUlsqpJ/a31jEYN8cLGsJrZV+aLuYne/gJ29PLZ297FP3lyZK2Bnd5/+rdbqFGSafPgizr3j7yKazYZsqAdsbq2Gl//qGdz8/BdbZD3y7p/C7I883nYZRECiXMIDL32P7sRiTdAi3DaJOw1tf6xo9ePBEUIKNh3WbNCmXBvajvimDSGiSUIYcb2ts+m6wp9OirTrrcZhbHqMeVQIAus03oEDNOEQg6Idp/kTCHmrCyv9EA0yKLrbFggbFGyYDTp6z0usMX3H8Yt0fmEkex50PCuZgFSXkjVcTNWRUi3cux07PZRPcINUMo6J0WFkh9PIDCXomwwJwDUynEY6mUDEcUBerU7BMScC8mYkCpY5DbDsAPcyMJqQRJH1XgpgsXHAGUxUBntPBHxIwQ52nkmUIQtTzTa8dgAsGSjEx4QWWLIAZghpgJz5xwgE4nxhxeM3cQmTd3BFbhY5n7QZ2dbVxvYthYr6LolmJov4AI0FeCSmpkYAAAWLSURBVCCVLT5i1xx6pABGCDCIsgj4VPWW1dcawAqRO0uEFuh81Nw1FQbA8oUzhRjvwmJsqwWd2PhTHLEkckSyZH6UuLc12rky2eq6Lmr1Our1RgL/OknkX2vcq1aq2Mnlsb2bp0BVvljC9l4BW7s55Atl7aiZmT+Bi0+9C8OLC4FNfC4izf/9KpN7FURQRgTVSONzxQXKLlCtu6jUgVK1hsoXnkHtmc+1lJ1893vgPPooEk4EcQeNvxE0flwXMdSRIPk0QUpqdL/Bn8Z9fxmZrJRw6YfPIVkq2L+wQNm+5O3Y24GlXwBpLS8jEE6Sva5HiHx4O7n8QOP7foLg6V49G1pZWaHtCGRRgXbkHCavapXSuxUMH0q+RXTrKd3zw7TsfV22zKF8MxT2E+Zfxt/XNm678rKZvq7d65637qXQtVO9xLYrOxDQbxZgw0/XD9wHAUIml2/M1DEfl62O+s2B3deHAFRDyTg9kjiUiiOVSNDjipmhFFKpOJKJxg89yhiLIh6PIZmI0bcmxWMxCnw1Lxl45c/SRdVRAliG4EWTTAKUGYFX/vLCawhGPGzFDHdgycAV3jZKkMgSvArYv8fgle1OOt8OVE2LesrqGJCnaE+q2DWV4c+9WoqxBHWEclgUQFIP6UI2ZJ6oMMnRmzpwyigX2Wx9PEIB1hOodYs8jo83kap8k+NrUnmsX2SN1geKWCV8fXU8TMGURVFPWR1VPlHyhIjbprrBmKtWaygWK9jZ28fa5i7Wtvawt19AoVhBLl9Ebr+AWl3pJOVgGEmlEH/qZzD2qkdBdk7VCfhUraBWqqBSLjdAMrh0p1atVgPRp14uAaUyIrUK4vU6nEoVTqWMSKkIFAtAPg/cvYPI8lJriz51BpidQySdhptKw00mUI8nUIvFUHWiqMficBIJRBIJxGIxxGIOoo5DvzAazQwhEo3CJWNnxIHrRFCJOFjYWsMbbr2ADNFLdIXagSXplAgUdPnht3teEgWhbsboadjEv7iBU8feNxNOP+hMbNA3Snd/ZmhcQmdtIsQ8PV10IWWs8oCwNxYYoI69sXPbpbR8U6BBCM3avAx/0LVjM+ltV3og4DAtoOrofb3YQNAFzWHWpUdlDwAse0MTgIscUYx7ABbJv5UggFY8SgGsZDKG9FCS5uYiQBj53Pg/gVQqQWnoJVuntQtgsXJtj9YFdlK1A2B5SuiSt7fYwRCgY91mC+z4RbAgny9PCZLxseLXURJDUlmKBbotSKeKIxkwqCheHJMGAJ9tMwqsyy1AARWfFqzglAwFRikABW35HIEKmxDV07+nLYcd7DqwC8sUQxGBQto8WKxw77OWh/Fjz48QWsRqS5sQAFilCgrFMt1ZVSpVsL2XR26/iK0dcgxwH7l8CaVypfmmP5tmRgCs4iNXaJOO1mpwalWgUgHKZbjlMpx6DY7rIkLe+keeVav0vlsqUcCr01ckFqMAFsgPSSIfjaIejdJdz08+fhGj42OoRqKoOA6qEQcFJ4pEvYYH9taR7hWA9eu//jHTcDewz1Fedsh0P8p1EiQcFY3pbATIAAcD7w9Ijq4FRGtJfs7Jw7wq2PfoWuJ+1dwWwLpf7TSo98ACh2cBgpWcT9Yx5mEqh6fJ8Sk5Aj8fV4QeQWSPHpIjiGRX10gmjeFMCplMiu7cClxWIEoLkqNO66UCL1pcoDjmqHJXYIeRwXJABCRZhYMlwGJtX47ByoZeRax4NMCYzDZWZfB6hWC2YTEIA3G1NDulZLYIUx7lsWC0IG2qKeSxBEVMyhWBSVZtirGFSXlUthcQKmBQpEMYXY1API3iRjIkRiO8LfwGhtKQ+McI6a6oeh0VcoRwl+S4ytEjhMdxnzQZI8+emMbJ2QmQsTN4WbYNaX9g0lnV8f8BWX2owIlzTJ8AAAAASUVORK5CYII=;clipPath=inset(0% 0% 0% 8.67%);" vertex="1" parent="1">
          <mxGeometry x="-130" width="1110" height="149.89" as="geometry" />
        </mxCell>
        <mxCell id="HRVeJ_BM7glMgU8fXkzC-6" value="Search" style="html=1;shadow=0;dashed=0;shape=mxgraph.bootstrap.rrect;rSize=5;strokeColor=#CED4DA;html=1;whiteSpace=wrap;fillColor=#FFFFFF;fontColor=#7D868C;align=left;spacingLeft=0;spacing=15;fontSize=14;fontFamily=Lato;fontSource=https%3A%2F%2Ffonts.googleapis.com%2Fcss%3Ffamily%3DLato;" vertex="1" parent="1">
          <mxGeometry x="160" y="70" width="482" height="40" as="geometry" />
        </mxCell>
        <mxCell id="HRVeJ_BM7glMgU8fXkzC-7" value="" style="html=1;shadow=0;dashed=0;shape=mxgraph.bootstrap.rightButton;strokeColor=#6C757D;gradientColor=inherit;fontColor=inherit;fillColor=inherit;rSize=5;perimeter=none;whiteSpace=wrap;resizeHeight=1;fontSize=14;fontFamily=Lato;fontSource=https%3A%2F%2Ffonts.googleapis.com%2Fcss%3Ffamily%3DLato;" vertex="1" parent="HRVeJ_BM7glMgU8fXkzC-6">
          <mxGeometry x="1" width="43" height="40.45" relative="1" as="geometry">
            <mxPoint x="-43" as="offset" />
          </mxGeometry>
        </mxCell>
        <mxCell id="HRVeJ_BM7glMgU8fXkzC-8" value="" style="html=1;verticalLabelPosition=bottom;align=center;labelBackgroundColor=#ffffff;verticalAlign=top;strokeWidth=2;strokeColor=#000000;shadow=0;dashed=0;shape=mxgraph.ios7.icons.looking_glass;fontFamily=Lato;fontSource=https%3A%2F%2Ffonts.googleapis.com%2Fcss%3Ffamily%3DLato;" vertex="1" parent="HRVeJ_BM7glMgU8fXkzC-6">
          <mxGeometry x="450" y="11.28" width="20" height="17.44" as="geometry" />
        </mxCell>
        <mxCell id="HRVeJ_BM7glMgU8fXkzC-46" value="&lt;font color=&quot;#ffffff&quot;&gt;How can we help?&lt;/font&gt;" style="text;strokeColor=none;fillColor=none;html=1;fontSize=24;fontStyle=1;verticalAlign=middle;align=left;" vertex="1" parent="1">
          <mxGeometry x="160" y="20" width="360" height="30" as="geometry" />
        </mxCell>
        <UserObject label="" id="HRVeJ_BM7glMgU8fXkzC-47">
          <mxCell style="rounded=1;whiteSpace=wrap;html=1;arcSize=1;strokeColor=none;fontFamily=Lato;fontSource=https%3A%2F%2Ffonts.googleapis.com%2Fcss%3Ffamily%3DLato;" vertex="1" parent="1">
            <mxGeometry x="670" y="160" width="290" height="290" as="geometry" />
          </mxCell>
        </UserObject>
        <UserObject label="" id="HRVeJ_BM7glMgU8fXkzC-48">
          <mxCell style="rounded=1;whiteSpace=wrap;html=1;arcSize=1;strokeColor=none;fontFamily=Lato;fontSource=https%3A%2F%2Ffonts.googleapis.com%2Fcss%3Ffamily%3DLato;" vertex="1" parent="1">
            <mxGeometry x="-117.5" y="430" width="767.5" height="430" as="geometry" />
          </mxCell>
        </UserObject>
        <UserObject label="" id="HRVeJ_BM7glMgU8fXkzC-49">
          <mxCell style="rounded=1;whiteSpace=wrap;html=1;arcSize=1;strokeColor=none;fontFamily=Lato;fontSource=https%3A%2F%2Ffonts.googleapis.com%2Fcss%3Ffamily%3DLato;" vertex="1" parent="1">
            <mxGeometry x="-117.5" y="880" width="767.5" height="240" as="geometry" />
          </mxCell>
        </UserObject>
        <UserObject label="" id="HRVeJ_BM7glMgU8fXkzC-50">
          <mxCell style="rounded=1;whiteSpace=wrap;html=1;arcSize=1;strokeColor=none;fontFamily=Lato;fontSource=https%3A%2F%2Ffonts.googleapis.com%2Fcss%3Ffamily%3DLato;" vertex="1" parent="1">
            <mxGeometry x="670" y="470" width="290" height="210" as="geometry" />
          </mxCell>
        </UserObject>
      </root>
    </mxGraphModel>
  </diagram>
</mxfile>
